/* XPM */
static char * checkout_xpm[] = {
"32 32 46 1",
" 	c None",
".	c #343434",
"+	c #737373",
"@	c #969696",
"#	c #8A8A8A",
"$	c #4A4A4A",
"%	c #7C7C7C",
"&	c #414141",
"*	c #3D3D3D",
"=	c #707070",
"-	c #424242",
";	c #959595",
">	c #939393",
",	c #858585",
"'	c #5F5F5F",
")	c #838383",
"!	c #757575",
"~	c #767676",
"{	c #7F7F7F",
"]	c #444444",
"^	c #909090",
"/	c #505050",
"(	c #8E8E8E",
"_	c #878787",
":	c #8C8C8C",
"<	c #5B5B5B",
"[	c #555555",
"}	c #919191",
"|	c #565656",
"1	c #383838",
"2	c #595959",
"3	c #6E6E6E",
"4	c #6D6D6D",
"5	c #686868",
"6	c #353535",
"7	c #3C3C3C",
"8	c #4F4F4F",
"9	c #777777",
"0	c #5E5E5E",
"a	c #585858",
"b	c #4C4C4C",
"c	c #8D8D8D",
"d	c #616161",
"e	c #5A5A5A",
"f	c #8F8F8F",
"g	c #515151",
"................................",
"................................",
"....+@@@@@@@#$..................",
"...%@@@@@@@@@@&.................",
"..*@@@@@@@@@@@=.................",
"..-@@@@@@@@@@@;>>>>>>>>>>>,'....",
"..-@@@@@@@@@@@@@@@@@@@@@@@@@%...",
"..-@@)!~~~~~~~~~~~~~~~~~~!{@@]..",
"..-@@......................^@/..",
"..-@@......................(@/..",
"..-@@......................(@/..",
"..-@@......................(@/..",
"..-@@......................(@/..",
"..-@@......................(@/..",
"..-@@......................(@/..",
"..-@@......................(@/..",
"..-@@......................_@/..",
"..-@@.......................:/..",
"..-@@...................]@,.</..",
"..-@@...................[@}.|/..",
"..-@@...................[@^.|/..",
"..-@@...................[@^.|/..",
"..-@@...................[@^.|/..",
"..-@@...................[@^.$&..",
"..1@@+23444444444445....[@^..6..",
"...4@@@@@@@@@@@@@@@<7@#6[@^.8@9.",
"....0,(;;;;;;;;;;;;ab@@([@^/@@c.",
".....................d@@@@@@@^..",
"......................e@@@@@f...",
".......................g@@@:....",
"........................$;#.....",
"................................"};
