/* XPM */
static char * publish_xpm[] = {
"32 32 93 2",
"  	c None",
". 	c #343434",
"+ 	c #3D3D3D",
"@ 	c #5B5B5B",
"# 	c #737373",
"$ 	c #838383",
"% 	c #8A8A8A",
"& 	c #4A4A4A",
"* 	c #7F7F7F",
"= 	c #969696",
"- 	c #363636",
"; 	c #797979",
"> 	c #8C8C8C",
", 	c #6E6E6E",
"' 	c #5A5A5A",
") 	c #808080",
"! 	c #626262",
"~ 	c #707070",
"{ 	c #696969",
"] 	c #494949",
"^ 	c #666666",
"/ 	c #8D8D8D",
"( 	c #3F3F3F",
"_ 	c #919191",
": 	c #939393",
"< 	c #848484",
"[ 	c #3A3A3A",
"} 	c #565656",
"| 	c #474747",
"1 	c #949494",
"2 	c #959595",
"3 	c #818181",
"4 	c #676767",
"5 	c #8B8B8B",
"6 	c #4F4F4F",
"7 	c #898989",
"8 	c #515151",
"9 	c #787878",
"0 	c #6A6A6A",
"a 	c #444444",
"b 	c #4C4C4C",
"c 	c #3C3C3C",
"d 	c #7B7B7B",
"e 	c #7E7E7E",
"f 	c #858585",
"g 	c #878787",
"h 	c #4D4D4D",
"i 	c #7D7D7D",
"j 	c #646464",
"k 	c #383838",
"l 	c #535353",
"m 	c #828282",
"n 	c #616161",
"o 	c #606060",
"p 	c #6D6D6D",
"q 	c #525252",
"r 	c #585858",
"s 	c #656565",
"t 	c #929292",
"u 	c #868686",
"v 	c #434343",
"w 	c #8F8F8F",
"x 	c #5F5F5F",
"y 	c #686868",
"z 	c #373737",
"A 	c #353535",
"B 	c #767676",
"C 	c #505050",
"D 	c #4B4B4B",
"E 	c #6B6B6B",
"F 	c #6C6C6C",
"G 	c #404040",
"H 	c #888888",
"I 	c #303030",
"J 	c #636363",
"K 	c #8E8E8E",
"L 	c #464646",
"M 	c #393939",
"N 	c #5D5D5D",
"O 	c #979797",
"P 	c #3B3B3B",
"Q 	c #989898",
"R 	c #6F6F6F",
"S 	c #9A9A9A",
"T 	c #999999",
"U 	c #2F2F2F",
"V 	c #323232",
"W 	c #424242",
"X 	c #9B9B9B",
"Y 	c #7C7C7C",
"Z 	c #313131",
"` 	c #717171",
" .	c #2E2E2E",
". . . . . . . . . . . . . . . . . . . . . . . . . . . . . . . . ",
". . . . . . . . . . + @ # $ % % $ # @ + . . . . . . . . . . . . ",
". . . . . . . . & * = = = = = = = = = = * & . . . . . . . . . . ",
". . . . . . - ; = = > , ' ) ! ~ { ] ^ / = = ; - . . . . . . . . ",
". . . . . ( _ = = > : = < , = = = [ ] } | > = _ ( . . . . . . . ",
". . . . ( 1 = = = = 1 2 3 4 = 5 3 6 . . = 7 = = 1 ( . . . . . . ",
". . . - _ = = = 3 8 = 9 . 0 ' . a b c b = : = = = _ - . . . . . ",
". . . ; = = = = 1 = = d . . . . . . e # f f = = = = ; . . . . . ",
". . & = = = = = = = g d . . . . . . h = = = = = = = = & . . . . ",
". . * = = = = = i j k . . . . . . . l $ = 2 = = m = = * . . . . ",
". + = = = = = l . . . . . . . . . . n = o p 7 > = = = = + . . . ",
". @ = = = = q . . . . . . . . . . . h = = = ) r s t = = @ . . . ",
". # = u | i . . . . . . . . . . . v w = = = = = = = = = # . . . ",
". $ = x y 9 z . . . . . . . . . . > = = = = = = = = = = $ . . . ",
". % = = s = < { A . . . . . . . - = = = = = = = = = = = % . . . ",
". % = 9 B . . C D . . . . . . . v = = = = = = = = = = = % . . . ",
". $ = A / m t d E . . . . . . . . t = = = = = = w F F t $ . . . ",
". # = a c t = = > j . . . . . . . G w t H = = 3 . I I - F . . . ",
". @ = J . > = = = = ~ . . . . . . . . . . * 3 . c K H k . . . . ",
". + = % . / = = = = = : d c . . . . . . . L . ( 1 = = w M . . . ",
". . * = h & = = = = = = = N . . . . . . . . a O = = = = : P . . ",
". . & = > . @ = = = = = : . . . . . . . . | = = Q = = Q = : G . ",
". . . ; = R . L = = = = 1 . . . . . . . A S = O ' T S } T = : U ",
". . . - _ = s . r = = = h . . . . . . . V 7 : W ] T X P D Q Y Z ",
". . . . ( 1 = R . ` = = c . . . . . . . . I U . ] T X c .  .Z . ",
". . . . . ( _ = > ] R = . . . . . . . . D J { W ] T X c . . . . ",
". . . . . . - ; = = g < e 6 . . . a J % = = ; . ] T X c . . . . ",
". . . . . . . . & * = = = = = = = = = = * & . . ] T X c . . . . ",
". . . . . . . . . . + @ # $ % % $ # @ + . . . . ] T X c . . . . ",
". . . . . . . . . . . . . . . . . . . . . . . . & T X c . . . . ",
". . . . . . . . . . . . . . . . . . . . . . . . k w 7 V . . . . ",
". . . . . . . . . . . . . . . . . . . . . . . . . I I . . . . . "};
