<?xml version="1.0" encoding="utf-8"?>
<!-- Generator: Adobe Illustrator 21.0.2, SVG Export Plug-In . SVG Version: 6.00 Build 0)  -->
<svg version="1.1" id="Layer_1" xmlns="http://www.w3.org/2000/svg" xmlns:xlink="http://www.w3.org/1999/xlink" x="0px" y="0px"
	 viewBox="0 0 32 32" style="enable-background:new 0 0 32 32;" xml:space="preserve">
<style type="text/css">
	.st0{fill:#4A6694;stroke:#3B3B3B;stroke-miterlimit:10;}
</style>
<title>alembic-export</title>
<g id="alembic-export">
	<g id="alembic-export-2">
		<g id="layer1">
			<g id="g3911">
				<path id="path3913" class="st0" d="M14.6,30.4C8.8,29.8,4,25.7,2.3,20.2c-0.4-1.3-0.6-2.6-0.7-3.9c0-1.4,0.4-2.7,1-4
					c0.3-0.7,0.7-1.3,0.8-1.2c0,0.2-0.1,0.4-0.2,0.7c-0.6,1.4-0.8,3-0.6,4.7c0.1,1.1,0.4,2.3,0.7,3.3c0.2,0.4,0.4,0.4,0.4,0
					c0.1-0.6,0.3-1.2,0.7-1.7c0.5-0.8,1.5-1,2.3-0.7c0.5,0.3,0.5,0.4,0,0.4c-1,0-1.9,1.2-1.9,2.6c0.2,2.4,1.6,4.5,3.6,5.7L9,26.4
					c0-0.2-0.1-0.4-0.3-0.6c-0.4-0.7-0.6-1.5-0.6-2.2c0-0.8,0.2-1.5,0.6-2.2c1.1-1.7,3.3-2.1,5-1.1c0.8,0.5,1.1,1.5,1,2.4
					c-0.1,0.4-0.3,0.7-0.6,1c-0.1,0-0.1-0.2-0.1-0.6c0-1-0.8-1.9-1.9-1.9h-0.4c-0.5,0.1-0.9,0.4-1.3,0.7c-1,1-0.7,2.8,0.7,4.2
					c1.7,1.7,4.6,2.1,8,1.5c0.9-0.2,1.7-0.6,2.4-1.1c0-0.1-0.3-0.1-0.7-0.2c-1.2-0.1-2.4-0.7-3.3-1.5c-1.9-1.7-2.1-4.7-0.4-6.6
					l0.3-0.3c1-1,2.3-1.6,3.7-1.5c0.8,0,1.6,0.4,2.2,1c1.4,1.4,1.1,3.5-0.4,4.1c-0.6,0.1-1.2,0.1-1.7-0.2c-0.3-0.2-0.6-0.4-0.8-0.7
					c0.2,0,0.4,0,0.7,0.1c1.1,0.2,1.8-0.1,1.8-1s-0.6-1.4-1.7-1.6c-0.6-0.1-1.2,0.1-1.7,0.5c-1.3,0.9-1.6,2.7-0.7,4
					c0.2,0.3,0.4,0.5,0.7,0.7c1.4,0.9,3.1,1,4.6,0.3c2.3-1.4,3.1-4.4,1.7-6.8c-0.2-0.3-0.5-0.7-0.7-1c-1.1-1-2.5-1.4-3.9-1.3
					c-1.7,0.1-2.5,0.4-5,1.9c-1.2,0.9-2.6,1.4-4.1,1.3c-0.7,0-1.3-0.2-1.9-0.4c-3.4-1.1-5.1-3.3-5.3-6.4c0-2.2,0.8-4.3,2.3-5.9
					c1.4-1.3,3-2.3,4.8-2.9c4.3-1.2,9-0.3,12.6,2.4c1.7,1.3,3.1,2.9,4.1,4.8c1.1,2.1,1.7,4.4,1.8,6.7c-0.1,1.8-0.5,3.7-1.1,5.4
					c-1.9,4.6-6,7.9-10.9,8.7C17.2,30.4,15.9,30.5,14.6,30.4L14.6,30.4z M25.5,10.9c-0.3-0.6-0.6-1.1-1-1.6
					c-1.3-1.3-3.3-1.2-3.4,0.3c-0.1,0.3,0.1,0.6,0.4,0.7c0.6,0.5,1.4,0.6,2.1,0.5c1-0.1,1.4-0.1,1.7,0.2
					C25.7,11.3,25.5,11.1,25.5,10.9z"/>
			</g>
		</g>
	</g>
</g>
</svg>
