<?xml version="1.0" encoding="utf-8"?>
<!-- Generator: Adobe Illustrator 21.0.2, SVG Export Plug-In . SVG Version: 6.00 Build 0)  -->
<svg version="1.1"
	 id="svg3825" inkscape:version="0.48.2 r9819" sodipodi:docname="drawing-1.svg" xmlns:cc="http://creativecommons.org/ns#" xmlns:dc="http://purl.org/dc/elements/1.1/" xmlns:inkscape="http://www.inkscape.org/namespaces/inkscape" xmlns:rdf="http://www.w3.org/1999/02/22-rdf-syntax-ns#" xmlns:sodipodi="http://sodipodi.sourceforge.net/DTD/sodipodi-0.dtd" xmlns:svg="http://www.w3.org/2000/svg"
	 xmlns="http://www.w3.org/2000/svg" xmlns:xlink="http://www.w3.org/1999/xlink" x="0px" y="0px" viewBox="0 0 32 32"
	 style="enable-background:new 0 0 32 32;" xml:space="preserve">
<style type="text/css">
	.st0{fill:#003994;}
	.st1{fill:#333333;}
</style>
<g id="path3913" inkscape:connector-curvature="0">
	<path class="st0" d="M15.7,31.4c-0.5,0-1,0-1.3-0.1c-6.2-0.6-11.5-5.1-13.2-11c-0.3-1.1-0.7-3.2-0.7-4.2c0-1.3,0.4-3.1,0.9-4.3
		c0.2-0.5,0.7-1.5,1.2-1.5h0.2l0.1,0.1c0.2,0.2,0.2,0.4-0.1,1c-0.6,1.4-0.8,3.2-0.6,4.8c0.1,0.8,0.3,2,0.5,2.7
		c0.1-0.4,0.4-0.9,0.7-1.2c0.6-0.6,1.2-1,1.9-1c0.3,0,0.6,0.1,1,0.2c0.2,0.1,0.7,0.3,0.6,0.7c-0.1,0.4-0.5,0.4-0.7,0.4
		c-0.3,0-0.7,0.1-0.9,0.4c-0.4,0.4-0.7,1.1-0.7,1.9c0,1.8,1.4,4.1,3.2,5.4c-0.3-0.7-0.4-1.3-0.4-2.1c0-1,0.2-1.8,0.7-2.5
		c0.8-1.2,2.2-1.9,3.7-1.9c0.8,0,1.5,0.2,2.1,0.6c0.9,0.7,1.4,1.9,1.2,2.9c0,0-0.4,1.3-1,1.3c-0.4,0-0.5-0.4-0.5-0.9
		c-0.1-1-0.7-1.7-1.5-1.7c-0.1,0-0.2,0-0.4,0c-0.6,0.1-0.8,0.3-1.2,0.7c-0.8,0.9-0.5,2.5,0.8,3.8c1.2,1.2,2.9,1.8,5.2,1.8
		c0.9,0,1.9-0.1,2.9-0.3c0.4-0.1,1.2-0.4,1.7-0.7c-1.4-0.2-2.5-0.7-3.4-1.7c-2.2-2.3-2.3-5.5-0.1-7.7c1.1-1.1,2.5-1.7,3.9-1.7
		c0.1,0,0.2,0,0.3,0c1.2,0.1,1.8,0.3,2.6,1.1c0.9,0.9,1.2,2.1,1,3.2c-0.2,0.8-0.8,1.5-1.6,1.7c-0.2,0.1-0.5,0.1-0.7,0.1
		c-0.5,0-1-0.1-1.3-0.3c-0.3-0.2-0.9-0.6-1-0.9l0-0.2l0.1-0.2c0.1-0.2,0.3-0.2,0.4-0.2c0.1,0,0.4,0,0.6,0.1c0.2,0,0.4,0.1,0.5,0.1
		c0.7,0,0.8-0.4,0.8-0.7c0-0.7-0.6-1.2-1.5-1.2c-0.1,0-0.2,0-0.3,0c-0.5,0-0.9,0.1-1.3,0.4c-0.7,0.5-1.1,1.4-1.1,2.3
		c0,0.8,0.4,1.6,1,2c0.7,0.5,1.6,0.7,2.4,0.7c0.7,0,1.4-0.2,2-0.5c1.2-0.6,2-1.9,2.2-3.4c0.2-1.6-0.3-3.1-1.3-4.1
		c-1-0.9-2-1.3-3.4-1.3c-0.1,0-0.3,0-0.4,0c-1.7,0.1-2.5,0.4-5,2c-1.6,1-2.6,1.4-4,1.4c-0.2,0-0.4,0-0.6,0c-0.7,0-1.3-0.2-2.1-0.4
		c-3.7-1.2-5.6-3.5-5.8-7C3.8,8.2,4.6,6.1,6.3,4.3C7.5,3,9.7,1.7,11.5,1.2c1.4-0.4,2.8-0.6,4.3-0.6c3.3,0,6.7,1.1,9.4,3.1
		c1.6,1.2,3.3,3.2,4.4,5.1c1.1,1.9,1.9,5.1,1.9,7.3c0,1.7-0.5,4.2-1.2,5.8c-2.1,5-6.4,8.5-11.7,9.4C17.8,31.4,16.8,31.4,15.7,31.4z
		 M22.9,8.3c-0.3,0-1.1,0.1-1.1,0.9c0,0.2,0,0.2,0.2,0.4c0.4,0.3,0.7,0.4,1.2,0.4c0.2,0,0.5,0,0.8-0.1c0.3,0,0.6-0.1,0.8-0.1
		c0.2,0,0.4,0,0.5,0c-0.2-0.3-0.4-0.6-0.7-0.8C24.2,8.6,23.5,8.3,22.9,8.3z"/>
	<path class="st1" d="M15.8,0.9c3.2,0,6.5,1,9.1,3c1.6,1.1,3.3,3.1,4.3,5c1,1.9,1.8,4.9,1.8,7.2c0,1.6-0.5,4.1-1.2,5.7
		c-2,4.8-6.3,8.3-11.4,9.2c-0.8,0.1-1.9,0.2-2.8,0.2c-0.5,0-0.9,0-1.3-0.1v0c-6-0.6-11.2-5-12.9-10.8c-0.3-1.1-0.6-3.2-0.6-4.1
		c0-1.3,0.4-3,0.9-4.2c0.3-0.6,0.7-1.3,0.8-1.3c0,0,0,0,0,0c0,0-0.1,0.3-0.2,0.6c-0.6,1.4-0.8,3.3-0.7,5c0.1,1.1,0.5,2.9,0.8,3.5
		c0.1,0.2,0.2,0.3,0.2,0.3c0.1,0,0.1-0.1,0.1-0.3c0-0.5,0.3-1.3,0.7-1.7c0.5-0.6,1.1-0.8,1.6-0.8c0.3,0,0.5,0.1,0.8,0.2
		c0.5,0.3,0.5,0.4,0,0.4c-1.1,0-2,1.2-2,2.7c0,2,1.7,4.7,3.8,6c0.3,0.2,0.5,0.3,0.6,0.3c0,0,0,0,0,0c0,0-0.1-0.3-0.3-0.6
		c-0.4-0.8-0.6-1.4-0.6-2.4c0-1,0.2-1.6,0.6-2.3c0.7-1.1,2.1-1.8,3.4-1.8c0.7,0,1.4,0.2,1.9,0.6c0.8,0.6,1.2,1.7,1,2.5
		c-0.1,0.4-0.4,1-0.6,1c0,0-0.1-0.2-0.1-0.5c-0.1-1.2-0.9-2-1.9-2c-0.1,0-0.3,0-0.4,0.1c-0.6,0.2-0.9,0.3-1.4,0.8
		c-1,1.1-0.6,2.9,0.8,4.3c1.2,1.2,3.1,1.9,5.4,1.9c0.9,0,1.9-0.1,2.9-0.3c0.8-0.2,2.6-1,2.6-1.2c0-0.1-0.3-0.1-0.7-0.2
		c-1.4-0.1-2.5-0.6-3.4-1.6c-2.1-2.1-2.2-5.1-0.1-7.2c1.1-1.1,2.3-1.6,3.7-1.6c0.1,0,0.2,0,0.3,0c1.1,0.1,1.7,0.3,2.4,1
		c1.4,1.4,1.2,3.7-0.4,4.3c-0.2,0.1-0.4,0.1-0.6,0.1c-0.4,0-0.9-0.1-1.2-0.2c-0.4-0.2-0.9-0.7-0.8-0.8c0,0,0,0,0.1,0
		c0.1,0,0.3,0,0.6,0.1c0.2,0,0.4,0.1,0.6,0.1c0.8,0,1.2-0.4,1.2-1.1c0-0.9-0.7-1.5-1.8-1.6c-0.1,0-0.2,0-0.3,0c-0.6,0-1,0.2-1.5,0.5
		c-1.7,1.2-1.7,3.8-0.1,4.9c0.8,0.5,1.7,0.8,2.7,0.8c0.7,0,1.5-0.2,2.1-0.5c2.8-1.4,3.4-5.9,1-8.1c-1-1-2.2-1.4-3.7-1.4
		c-0.1,0-0.3,0-0.4,0c-1.8,0.1-2.6,0.4-5.2,2.1c-1.5,1-2.5,1.3-3.8,1.3c-0.2,0-0.3,0-0.5,0c-0.7,0-1.2-0.1-2-0.4
		c-3.5-1.2-5.3-3.4-5.5-6.7C4.2,8.3,4.9,6.3,6.6,4.5c1.1-1.2,3.3-2.5,5-3C13,1.1,14.4,0.9,15.8,0.9 M23.2,10.4c0.2,0,0.5,0,0.8-0.1
		c0.3,0,0.6-0.1,0.8-0.1c0.5,0,0.8,0.1,1,0.3c0.1,0.1,0.1,0.1,0.2,0.1c0.1,0,0.1,0,0.1-0.1c0-0.2-0.6-1.2-1.1-1.7
		c-0.6-0.6-1.4-1-2.1-1c-0.8,0-1.4,0.4-1.5,1.2c0,0.3,0,0.4,0.4,0.7C22.2,10.3,22.6,10.4,23.2,10.4 M15.8,0.2c-1.5,0-3,0.2-4.4,0.6
		C9.6,1.3,7.3,2.7,6.1,4c-1.8,1.9-2.6,4.1-2.5,6.7c0.2,3.6,2.3,6.1,6.1,7.4c0.9,0.3,1.5,0.4,2.2,0.5c0.2,0,0.4,0,0.6,0
		c1.5,0,2.6-0.4,4.2-1.4c2.5-1.6,3.2-1.9,4.9-2c0.1,0,0.2,0,0.4,0c1.3,0,2.3,0.4,3.2,1.2c1,0.9,1.4,2.3,1.2,3.7
		c-0.2,1.4-0.9,2.6-2,3.1c-0.5,0.3-1.2,0.4-1.8,0.4c-0.8,0-1.6-0.2-2.2-0.7c-0.5-0.4-0.9-1-0.9-1.7c0-0.8,0.3-1.6,1-2
		c0.3-0.2,0.6-0.3,1-0.3c0.1,0,0.2,0,0.2,0c0.3,0,1.1,0.2,1.1,0.9c0,0.2,0,0.4-0.5,0.4c-0.1,0-0.3,0-0.5-0.1c-0.1,0-0.5-0.1-0.7-0.1
		c-0.4,0-0.6,0.2-0.7,0.4l-0.2,0.3l0.1,0.4c0.2,0.6,1.2,1.2,1.2,1.2c0.4,0.2,1,0.3,1.5,0.3c0.3,0,0.6,0,0.8-0.1c0.9-0.3,1.6-1,1.8-2
		c0.3-1.2-0.1-2.6-1.1-3.5c-0.9-0.9-1.6-1.2-2.9-1.3c-0.1,0-0.2,0-0.3,0c-1.6,0-3,0.6-4.2,1.8c-2.3,2.3-2.3,5.8,0.1,8.2
		c0.7,0.7,1.5,1.2,2.4,1.5c-0.2,0.1-0.4,0.1-0.6,0.2c-1,0.2-1.9,0.3-2.8,0.3c-2.1,0-3.8-0.6-4.9-1.7c-1.2-1.1-1.5-2.5-0.8-3.3
		c0.3-0.3,0.5-0.4,1-0.6c0.1,0,0.2,0,0.3,0c0.6,0,1.1,0.6,1.2,1.4c0,0.4,0.1,1.2,0.9,1.2c0.9,0,1.3-1.6,1.3-1.6
		c0.3-1.1-0.3-2.6-1.3-3.3c-0.6-0.5-1.5-0.7-2.3-0.7c-1.6,0-3.2,0.8-4,2.1c-0.5,0.8-0.7,1.6-0.7,2.7c0,0.3,0,0.7,0.1,1
		c-1.2-1.2-2.1-2.9-2.1-4.3c0-0.7,0.2-1.3,0.6-1.6c0.2-0.2,0.4-0.3,0.7-0.3c0.8,0,1-0.4,1.1-0.7c0.2-0.7-0.5-1-0.8-1.2
		c-0.4-0.2-0.7-0.3-1.1-0.3c-0.8,0-1.5,0.4-2.2,1.1c-0.1,0.1-0.2,0.2-0.3,0.3c-0.1-0.6-0.2-1.2-0.3-1.7c-0.2-1.5,0.1-3.3,0.6-4.6
		c0.2-0.5,0.4-1.1,0-1.5L3,10l-0.3,0c-0.2,0-0.7,0-1.5,1.7c-0.6,1.3-1,3.1-1,4.5c0,1,0.3,3.1,0.7,4.3C2.6,26.6,8,31.1,14.4,31.8
		c0.4,0,0.9,0.1,1.4,0.1c1,0,2.1-0.1,2.9-0.2c5.4-0.9,9.9-4.5,12-9.6c0.7-1.7,1.2-4.2,1.2-6c0-2.3-0.8-5.6-1.9-7.5
		c-1.1-2-2.9-4-4.5-5.2C22.6,1.3,19.2,0.2,15.8,0.2L15.8,0.2z M22.1,9.3C22.1,9.2,22.2,9.2,22.1,9.3c0-0.4,0.3-0.6,0.7-0.6
		c0.5,0,1.1,0.3,1.6,0.7c0,0,0.1,0.1,0.1,0.2c-0.2,0-0.4,0-0.7,0.1c-0.3,0-0.5,0.1-0.7,0.1c-0.5,0-0.7-0.1-1-0.3
		C22.2,9.3,22.2,9.3,22.1,9.3L22.1,9.3z"/>
</g>
</svg>
