<?xml version="1.0" encoding="utf-8"?>
<!-- Generator: Adobe Illustrator 21.0.2, SVG Export Plug-In . SVG Version: 6.00 Build 0)  -->
<svg version="1.1" id="Layer_1" xmlns="http://www.w3.org/2000/svg" xmlns:xlink="http://www.w3.org/1999/xlink" x="0px" y="0px"
	 viewBox="0 0 32 32" style="enable-background:new 0 0 32 32;" xml:space="preserve">
<style type="text/css">
	.st0{fill:#4A6694;stroke:#3B3B3B;stroke-miterlimit:10;}
</style>
<title>assemble</title>
<g id="assemble">
	<path class="st0" d="M30.8,21.6c0,0.9-0.3,1.7-0.8,2.4c-0.5,0.7-1.4,1-2.2,1c-0.5,0-0.9-0.1-1.4-0.3c-0.4-0.2-0.7-0.4-1-0.7
		c-0.3-0.3-0.6-0.5-1-0.7C24,23.1,23.5,23,23.1,23c-1.3,0-2,0.7-2,2.2c0,0.7,0.1,1.4,0.3,2c0.2,0.7,0.3,1.4,0.3,2v0.1h-0.6
		c-0.4,0-1,0.1-1.7,0.2c-0.8,0.1-1.4,0.2-2.1,0.2c-0.6,0.1-1.2,0.1-1.7,0.1c-0.6,0-1.3-0.1-1.8-0.5c-0.5-0.3-0.8-0.9-0.7-1.5
		c0-0.4,0.1-0.9,0.3-1.3c0.2-0.4,0.4-0.7,0.7-1c0.3-0.3,0.5-0.7,0.7-1c0.2-0.4,0.3-0.9,0.3-1.4c0-0.9-0.3-1.7-1-2.2
		c-0.7-0.5-1.5-0.8-2.4-0.8c-0.9,0-1.8,0.3-2.6,0.8c-0.7,0.6-1.1,1.4-1,2.3c0,0.5,0.1,1,0.3,1.5c0.1,0.4,0.3,0.8,0.6,1.2
		c0.2,0.3,0.4,0.6,0.6,1c0.2,0.3,0.3,0.6,0.3,0.9c0,0.6-0.3,1.2-0.8,1.6c-0.6,0.4-1.3,0.6-2.1,0.6c-1.5,0-2.9-0.2-4.4-0.4l-0.5,0
		l-0.5-0.1H1.2h0l0,0V11.1l0.3,0.1l0.6,0.1l0.4,0.1c1.4,0.3,2.9,0.4,4.4,0.4c0.7,0.1,1.5-0.2,2.1-0.6c0.5-0.4,0.8-1,0.8-1.6
		c0-0.3-0.1-0.6-0.3-0.9C9.3,8.3,9.1,8,8.9,7.7C8.7,7.3,8.4,6.9,8.3,6.5C8.1,6.1,8,5.6,8,5.1c0-0.9,0.4-1.7,1.1-2.3
		C9.8,2.2,10.7,2,11.6,2c0.9,0,1.7,0.2,2.4,0.8c0.7,0.5,1,1.4,1,2.2c0,0.5-0.1,0.9-0.3,1.4c-0.2,0.4-0.4,0.7-0.7,1
		c-0.3,0.3-0.5,0.6-0.7,1C13.1,8.8,13,9.2,13,9.7c0,0.6,0.2,1.2,0.8,1.5c0.6,0.3,1.2,0.5,1.8,0.5c1.1,0,2.1-0.1,3.2-0.3
		c1.4-0.2,2.4-0.3,2.9-0.3l0,0c0,0.1,0,0.2-0.1,0.3c0,0.2,0,0.4-0.1,0.6c0,0.1,0,0.3-0.1,0.4c-0.3,1.4-0.4,2.9-0.4,4.4
		c-0.1,0.7,0.2,1.5,0.6,2.1c0.4,0.5,1,0.8,1.6,0.8c0.3,0,0.6-0.1,0.9-0.3c0.3-0.2,0.7-0.4,1-0.6c0.4-0.3,0.7-0.5,1.1-0.6
		c0.5-0.1,1-0.2,1.5-0.2c0.9,0,1.7,0.3,2.2,1C30.5,19.7,30.8,20.6,30.8,21.6z"/>
</g>
</svg>
