<?xml version="1.0" encoding="utf-8"?>
<!-- Generator: Adobe Illustrator 21.0.2, SVG Export Plug-In . SVG Version: 6.00 Build 0)  -->
<svg version="1.1" id="Layer_1" xmlns="http://www.w3.org/2000/svg" xmlns:xlink="http://www.w3.org/1999/xlink" x="0px" y="0px"
	 viewBox="0 0 32 32" style="enable-background:new 0 0 32 32;" xml:space="preserve">
<style type="text/css">
	.st0{fill:#4A6694;stroke:#3B3B3B;stroke-miterlimit:10;}
</style>
<title>auto-comp</title>
<g id="auto-comp">
	<path class="st0" d="M5.3,20.3h21.3V7.5H5.3V20.3z M30.1,28c-0.5,0.5-1.2,0.8-1.9,0.8H3.7c-0.7,0-1.4-0.3-1.9-0.8
		c-0.5-0.5-0.8-1.2-0.8-1.9V5.9c0-0.7,0.3-1.4,0.8-1.9C2.4,3.5,3,3.2,3.7,3.2h24.5c0.7,0,1.4,0.3,1.9,0.8c0.5,0.5,0.8,1.2,0.8,1.9
		v20.2C30.9,26.8,30.6,27.5,30.1,28z"/>
</g>
</svg>
