<?xml version="1.0" encoding="utf-8"?>
<!-- Generator: Adobe Illustrator 21.0.2, SVG Export Plug-In . SVG Version: 6.00 Build 0)  -->
<svg version="1.1" id="Layer_1" xmlns="http://www.w3.org/2000/svg" xmlns:xlink="http://www.w3.org/1999/xlink" x="0px" y="0px"
	 viewBox="0 0 32 32" style="enable-background:new 0 0 32 32;" xml:space="preserve">
<style type="text/css">
	.st0{fill:#4A6694;stroke:#3B3B3B;stroke-miterlimit:10;}
</style>
<title>beardling</title>
<path class="st0" d="M12.7,30.3c-0.3-0.1,0-0.8,0-1.1c0-0.8-0.5-1.1-1.2-0.8c-0.6,0.2-1.1,0.6-1.4,0.9c-0.1,0.1-0.3,0.4-0.6,0.5
	c-0.3-0.7-0.1-1.5-0.2-2.2c-0.2-0.8-0.8-1.2-1.4-1.5c-0.3-0.1-0.5,0-0.6,0.4c0,0.4,0,0.7,0.2,1.1c0,0.1,0.2,0.2,0,0.4
	c-0.1,0.1-0.3,0-0.4,0c-0.7-0.3-1-1-1.2-1.7c-0.3-0.9-0.2-1.9-0.2-2.9c-0.4,0.5-0.8,0.9-1.2,1.2c-0.2,0.1-0.4,0.2-0.6,0.3
	c-0.1,0-0.2,0.1-0.3,0c-0.1-0.1-0.1-0.2,0-0.3c0.2-0.3,0.4-0.6,0.6-0.9c0.6-1.1,1.2-2.2,1.1-3.6c0-0.1,0-0.1,0-0.2
	c0-0.2,0-0.4-0.2-0.5c-0.2-0.1-0.3,0.2-0.4,0.3c-0.4,0.3-0.5,0.8-0.9,1.3c-0.2-1,0.1-1.8,0.4-2.7c0.5-1.3,1.3-2.4,1.7-3.8
	c0-0.2,0.1-0.3,0-0.6c-0.5,0.4-1,0.9-1.3,1.4c-0.1,0.2-0.2,0.3-0.4,0.5C4.1,15.9,4,16,3.9,15.9c-0.1-0.1-0.1-0.2-0.1-0.3
	C3.9,15.3,4,15,4.1,14.7c0.4-0.9,1-1.7,1.3-2.7c0.2-0.7,0.4-1.3,0.4-2.1c0-0.9-0.4-1.2-1.3-0.9c-0.1,0-0.3,0.2-0.4,0.1
	c0.1-0.4,0.4-0.7,0.7-1C5.1,7.5,5.6,7,5.9,6.3C6.1,6,6.1,5.6,6.1,5.3c0-0.9,0.2-1.7,0.5-2.5c0.3-0.7,0.9-1.1,1.5-1.3
	c0.1,0,0.2,0,0.3,0c0.1,0,0.2,0,0.2,0.1c0,0.1-0.1,0.2-0.1,0.2c-0.5,0.4-0.7,1-0.7,1.6c0,0.7,0.5,1,1,1c0.8,0,1.4-0.4,2-0.9
	c0.7-0.6,1.2-1.3,2-1.9c0.8-0.5,1.5-0.4,2.3,0c0.1,0.1,0.2,0.1,0.3,0.2c0.6,0.4,0.6,0.4,1.3,0c0.9-0.7,2-0.6,2.9,0.2
	c0.8,0.7,1.4,1.4,2.2,2.1c0.4,0.3,0.7,0.4,1.2,0.5c1,0.1,1.4-0.6,1.2-1.5c-0.1-0.4-0.4-0.7-0.6-1c-0.1-0.1-0.3-0.2-0.2-0.4
	c0.1-0.1,0.3-0.1,0.5,0c0.6,0.3,1.2,0.6,1.5,1.3c0.2,0.5,0.4,1,0.4,1.5c0,1.3,0.4,2.4,1.2,3.4c0.4,0.5,0.8,0.9,1,1.5
	c-0.2,0.1-0.4,0-0.6-0.1c-0.6-0.3-1.1,0-1.1,0.6c-0.1,0.9,0,1.8,0.4,2.7c0.4,0.8,0.8,1.7,1.3,2.5c0.1,0.3,0.2,0.6,0.3,0.9
	c0,0.1,0,0.2-0.1,0.3c-0.1,0.1-0.2,0-0.2-0.1c-0.3-0.4-0.5-0.8-0.9-1.2c-0.2-0.2-0.4-0.4-0.5-0.6c-0.1-0.1-0.1-0.2-0.2-0.1
	c-0.1,0.1-0.1,0.2-0.1,0.3c0.1,0.4,0.2,0.8,0.4,1.2c0.5,1.1,1.2,2.2,1.5,3.4c0.1,0.4,0.1,0.9,0.2,1.3c0,0.2,0,0.3-0.1,0.4
	c-0.2,0.1-0.2-0.2-0.3-0.3c-0.2-0.3-0.4-0.6-0.6-0.9c-0.2-0.3-0.3-0.2-0.4,0.1c-0.1,0.5-0.1,1,0,1.5c0.2,1.1,0.8,2.1,1.4,3.1
	c0.1,0.2,0.4,0.4,0.2,0.6c-0.1,0.1-0.4-0.1-0.6-0.2c-0.6-0.3-1-0.9-1.6-1.4c0,0.8,0,1.5,0,2.2c0,1.1-0.5,1.9-1.4,2.5
	c-0.1,0.1-0.2,0.2-0.3,0.1c-0.1-0.1-0.1-0.2,0-0.3c0.1-0.4,0.3-0.8,0.2-1.2c0-0.4-0.3-0.6-0.6-0.4c-0.8,0.4-1.4,1-1.6,1.9
	c-0.1,0.6-0.1,1.1-0.1,1.8c-0.5-0.4-0.9-0.7-1.3-1.1c-0.3-0.2-0.7-0.4-1.1-0.4c-0.6,0-1,0.4-0.8,1c0,0.1,0.1,0.3,0.1,0.4
	c0,0.2,0.1,0.4-0.1,0.5c-0.2,0.1-0.3-0.1-0.5-0.3c-0.4-0.4-0.8-0.8-1.1-1.4c-0.3,0.5-0.5,1.1-0.7,1.6c-0.1,0.2-0.1,0.4-0.3,0.4
	c-0.2,0-0.2-0.2-0.3-0.4c-0.1-0.2-0.2-0.4-0.3-0.4c-0.2,0-0.2,0.2-0.3,0.4c0,0.1,0,0.1-0.1,0.2c-0.1,0.1-0.1,0.3-0.3,0.3
	c-0.1,0-0.1-0.2-0.2-0.3c-0.2-0.5-0.4-1.3-0.7-1.5c-0.1-0.1-0.5,0.3-0.5,0.3S13.1,30.5,12.7,30.3z M16.2,4.9c-0.6,0-1.1,0-1.6,0
	c-1,0-1.8,0.6-2.3,1.5C12,6.9,12.3,7.5,13,7.5c0.8,0,1.5-0.4,2.2-0.7c0.5-0.2,1-0.3,1.5,0c0.6,0.4,1.4,0.5,2.1,0.8
	c0.3,0.1,0.6-0.1,0.7-0.3C19.7,7,20,6.7,19.7,6.4C19.3,5.8,18.8,5.2,18,5C17.4,4.8,16.7,4.9,16.2,4.9z"/>
</svg>
