<?xml version="1.0" encoding="utf-8"?>
<!-- Generator: Adobe Illustrator 21.0.2, SVG Export Plug-In . SVG Version: 6.00 Build 0)  -->
<svg version="1.1" id="Layer_1" xmlns="http://www.w3.org/2000/svg" xmlns:xlink="http://www.w3.org/1999/xlink" x="0px" y="0px"
	 viewBox="0 0 32 32" style="enable-background:new 0 0 32 32;" xml:space="preserve">
<style type="text/css">
	.st0{fill:#4A6694;stroke:#3B3B3B;stroke-miterlimit:10;}
</style>
<title>checkout</title>
<g id="checkout">
	<g id="checkout-2">
		<path class="st0" d="M31,15.2c0,0.6-0.2,1.3-0.7,1.7L17.8,29.5c-0.5,0.5-1.1,0.7-1.8,0.7c-0.6,0-1.3-0.2-1.7-0.7L1.7,16.9
			C1.2,16.5,1,15.9,1,15.2c0-0.7,0.3-1.3,0.7-1.8L3.1,12c0.5-0.5,1.1-0.7,1.8-0.7c0.6,0,1.3,0.2,1.7,0.7l5.7,5.7V4.1
			c0-0.6,0.2-1.3,0.7-1.7c0.4-0.5,1.1-0.7,1.7-0.7h2.5c0.7,0,1.3,0.2,1.8,0.7c0.5,0.4,0.7,1.1,0.7,1.7v13.6l5.7-5.8
			c0.4-0.5,1.1-0.7,1.7-0.7c0.7,0,1.3,0.2,1.8,0.7l1.5,1.4C30.8,13.9,31,14.6,31,15.2z"/>
	</g>
</g>
</svg>
