<?xml version="1.0" encoding="utf-8"?>
<!-- Generator: Adobe Illustrator 21.0.2, SVG Export Plug-In . SVG Version: 6.00 Build 0)  -->
<svg version="1.1" id="Layer_1" xmlns="http://www.w3.org/2000/svg" xmlns:xlink="http://www.w3.org/1999/xlink" x="0px" y="0px"
  viewBox="0 0 32 32" style="enable-background:new 0 0 32 32;" xml:space="preserve">
 <style type="text/css">
   .st0{fill:#4A6694;stroke:#3B3B3B;stroke-miterlimit:10;}
 </style>
 <title>death</title>
 <g id="death">
 	<g id="death-2">
 		<path class="st0" d="M23.1,10.5l-3.8,3.8V25c0,0.8-0.7,1.5-1.5,1.5s-1.5-0.7-1.5-1.5l0,0v-5h-0.8v5c0,0.8-0.7,1.5-1.5,1.5
 			c-0.4,0-0.8-0.2-1-0.4c-0.3-0.3-0.4-0.7-0.4-1V14.3L9,10.5C8.5,10,8.5,9.3,9,8.8l0,0c0.2-0.2,0.6-0.4,0.9-0.3
 			c0.3,0,0.7,0.1,0.9,0.3l2.9,2.9h4.7l2.9-2.9c0.5-0.5,1.2-0.5,1.7,0l0,0c0.2,0.2,0.4,0.6,0.3,0.9C23.5,10,23.4,10.3,23.1,10.5z
 			 M18.9,8.4c0,0.8-0.3,1.5-0.8,2c-1.1,1.1-3,1.1-4.1,0c-0.5-0.5-0.8-1.3-0.8-2c0-0.8,0.3-1.5,0.9-2c1.1-1.1,3-1.1,4.1,0
 			C18.7,6.9,19,7.7,18.9,8.4L18.9,8.4z"/>
 	</g>
 </g>
</svg>
