<?xml version="1.0" encoding="utf-8"?>
<!-- Generator: Adobe Illustrator 21.0.2, SVG Export Plug-In . SVG Version: 6.00 Build 0)  -->
<svg version="1.1" id="Layer_1" xmlns="http://www.w3.org/2000/svg" xmlns:xlink="http://www.w3.org/1999/xlink" x="0px" y="0px"
	 viewBox="0 0 32 32" style="enable-background:new 0 0 32 32;" xml:space="preserve">
<style type="text/css">
	.st0{fill:#4A6694;stroke:#3B3B3B;stroke-miterlimit:10;}
</style>
<title>education</title>
<g id="education">
	<path class="st0" d="M24,15.2l0.2,4c0,0.7-0.4,1.3-1,1.6c-0.9,0.6-1.9,1-3,1.2c-1.4,0.3-2.7,0.5-4.1,0.4c-1.4,0-2.8-0.1-4.1-0.4
		c-1.1-0.2-2.1-0.6-3-1.2c-0.6-0.3-1-0.9-1.1-1.6l0.1-4l7.4,2.3c0.4,0.1,0.8,0.1,1.2,0L24,15.2z M30.8,11.1c0,0.2-0.1,0.3-0.3,0.4
		L16.1,16h-0.3l-8.4-2.6c-0.4,0.4-0.7,0.9-0.9,1.4c-0.3,0.7-0.4,1.5-0.4,2.3C6.7,17.3,7,17.9,7,18.5c0,0.6-0.3,1.1-0.7,1.4L7,25.4
		c0,0.2-0.1,0.4-0.4,0.5c0,0,0,0,0,0H4.1c-0.2,0-0.4-0.2-0.4-0.4c0,0,0,0,0,0l0.7-5.5c-0.8-0.5-1-1.5-0.6-2.2
		C4,17.3,4.3,17.1,4.5,17c0-1.5,0.5-3,1.3-4.2l-4.3-1.3c-0.2-0.1-0.3-0.3-0.3-0.5c0-0.1,0.1-0.2,0.3-0.3l14.4-4.5h0.3l14.4,4.5
		C30.7,10.7,30.8,11.1,30.8,11.1z"/>
</g>
</svg>
