<?xml version="1.0" encoding="utf-8"?>
<!-- Generator: Adobe Illustrator 21.0.2, SVG Export Plug-In . SVG Version: 6.00 Build 0)  -->
<svg version="1.1" id="Layer_1" xmlns="http://www.w3.org/2000/svg" xmlns:xlink="http://www.w3.org/1999/xlink" x="0px" y="0px"
	 viewBox="0 0 32 32" style="enable-background:new 0 0 32 32;" xml:space="preserve">
<style type="text/css">
	.st0{fill:#4A6694;stroke:#3B3B3B;stroke-miterlimit:10;}
</style>
<title>ik-fk</title>
<g id="ik-fk">
	<g id="ikfksnap">
		<path class="st0" d="M14.8,22.7L14.1,22c-0.2-0.2-0.4-0.5-0.4-0.9c0-0.3,0.1-0.6,0.4-0.8l2.6-2.6h-6.2c-0.6,0-1.1-0.5-1.1-1.1
			c0,0,0,0,0-0.1l0,0v-1.1c0-0.6,0.5-1.1,1.1-1.1h0.1h6.2l-2.6-2.6c-0.2-0.2-0.4-0.5-0.4-0.8s0.1-0.6,0.4-0.8l0.7-0.7
			C15.1,9.2,15.4,9,15.8,9c0.3,0,0.6,0.1,0.8,0.4l5.8,5.8c0.2,0.2,0.4,0.5,0.4,0.8c0,0.3-0.1,0.6-0.4,0.9l-5.8,5.8
			c-0.2,0.2-0.5,0.4-0.8,0.4C15.3,23.1,15,22.9,14.8,22.7z"/>
		<ellipse transform="matrix(0.8897 -0.4565 0.4565 0.8897 -8.2572 3.8814)" class="st0" cx="3.9" cy="19" rx="2.1" ry="2.1"/>
		<path class="st0" d="M4.4,22.6l2.3-1.1c0.2-0.1,0.5,0,0.6,0.2l2.5,7.5c0.1,0.2,0,0.5-0.2,0.6l0,0c-0.2,0.1-0.4,0-0.5-0.2l0,0
			l-4.6-6.3C4.1,23.1,4.2,22.8,4.4,22.6L4.4,22.6z"/>
		<ellipse transform="matrix(0.4545 -0.8908 0.8908 0.4545 1.7242 11.2545)" class="st0" cx="10.1" cy="4.2" rx="2.1" ry="2.1"/>
		<path class="st0" d="M9.6,7.9C9.9,8,9.9,8.3,9.7,8.6l-4.6,6.3C5,15.1,4.7,15.1,4.5,15c-0.2-0.1-0.2-0.3-0.2-0.5l2.4-7.6
			C6.8,6.7,7,6.5,7.4,6.7L9.6,7.9z"/>
		<ellipse transform="matrix(0.4565 -0.8897 0.8897 0.4565 -1.5809 35.2898)" class="st0" cx="28.1" cy="18.9" rx="2.1" ry="2.1"/>
		<path class="st0" d="M25.3,21.5c-0.2-0.1-0.5,0-0.6,0.2l-2.5,7.5c-0.1,0.2,0,0.5,0.2,0.6l0,0c0.2,0.1,0.4,0,0.5-0.2l0,0l4.6-6.3
			c0.1-0.2,0.1-0.4,0-0.5l0,0L25.3,21.5z"/>
		<ellipse transform="matrix(0.8908 -0.4545 0.4545 0.8908 0.457 10.42)" class="st0" cx="21.9" cy="4.3" rx="2.1" ry="2.1"/>
		<path class="st0" d="M22.3,7.9C22.1,8,22,8.3,22.1,8.5l4.6,6.4c0.1,0.2,0.4,0.2,0.6,0.1c0.2-0.1,0.3-0.3,0.2-0.5L25.1,7
			c-0.1-0.3-0.2-0.4-0.6-0.3L22.3,7.9z"/>
	</g>
</g>
</svg>
