<?xml version="1.0" encoding="utf-8"?>
<!-- Generator: Adobe Illustrator 21.0.2, SVG Export Plug-In . SVG Version: 6.00 Build 0)  -->
<svg version="1.1" id="Layer_1" xmlns="http://www.w3.org/2000/svg" xmlns:xlink="http://www.w3.org/1999/xlink" x="0px" y="0px"
	 viewBox="0 0 32 32" style="enable-background:new 0 0 32 32;" xml:space="preserve">
<style type="text/css">
	.st0{fill:#4A6694;stroke:#3B3B3B;stroke-miterlimit:10;}
</style>
<title>interpolate</title>
<g id="interpolate">
	<path class="st0" d="M9.5,25.2c0,1.2-1,2.2-2.2,2.2c-1.2,0-2.2-1-2.2-2.2s1-2.2,2.2-2.2c0.6,0,1.2,0.2,1.6,0.6
		C9.3,24.1,9.6,24.6,9.5,25.2z M18.2,28.8c0,1.2-1,2.2-2.2,2.2c-0.6,0-1.2-0.2-1.6-0.7c-0.9-0.8-1-2.2-0.2-3.1s2.2-1,3.1-0.2
		c0.1,0,0.1,0.1,0.2,0.2C18,27.7,18.2,28.2,18.2,28.8z M6,16.6c0,0.6-0.2,1.2-0.7,1.6c-0.4,0.4-1,0.7-1.6,0.6
		c-0.6,0-1.2-0.2-1.6-0.6c-0.9-0.9-0.9-2.3,0-3.1c0.4-0.4,1-0.7,1.6-0.6c0.6,0,1.1,0.2,1.6,0.7C5.7,15.4,6,16,6,16.6z M26.9,25.2
		c0,1.2-1,2.2-2.2,2.2c-1.2,0-2.2-1-2.2-2.2c0-1.2,1-2.2,2.2-2.2c0.6,0,1.2,0.2,1.6,0.7C26.7,24.1,26.9,24.6,26.9,25.2z M10.1,7.9
		c0,1.5-1.2,2.8-2.8,2.8l0,0c-1.5,0-2.8-1.3-2.8-2.8c0-1.5,1.3-2.8,2.8-2.8C8.9,5.1,10.1,6.3,10.1,7.9L10.1,7.9L10.1,7.9z
		 M30.5,16.5c0,1.2-1,2.2-2.2,2.3s-2.2-1-2.3-2.2s1-2.2,2.2-2.3c0.6,0,1.2,0.2,1.6,0.7C30.2,15.4,30.5,16,30.5,16.5L30.5,16.5z
		 M19.3,4.3c0,0.9-0.4,1.8-1,2.4C17,8,14.9,8,13.6,6.7c-0.6-0.6-1-1.5-1-2.4c0-0.9,0.4-1.8,1-2.4c1.3-1.3,3.4-1.3,4.7,0
		C19,2.5,19.3,3.4,19.3,4.3z M28.6,7.9c0,2.2-1.7,3.9-3.9,3.9c-2.1,0-3.9-1.7-3.9-3.9c0,0,0,0,0,0c0-1,0.4-2,1.1-2.8
		c1.5-1.5,4-1.5,5.5,0c0,0,0,0,0,0C28.1,5.9,28.6,6.8,28.6,7.9L28.6,7.9z"/>
</g>
</svg>
