<?xml version="1.0" encoding="utf-8"?>
<!-- Generator: Adobe Illustrator 21.0.2, SVG Export Plug-In . SVG Version: 6.00 Build 0)  -->
<svg version="1.1" id="Layer_1" xmlns="http://www.w3.org/2000/svg" xmlns:xlink="http://www.w3.org/1999/xlink" x="0px" y="0px"
	 viewBox="0 0 32 32" style="enable-background:new 0 0 32 32;" xml:space="preserve">
<style type="text/css">
	.st0{fill:#003994;}
	.st1{fill:#555555;}
	.st2{fill:#FFFFFF;}
</style>
<g>
	<path class="st0" d="M16,31.6c-8.6,0-15.6-7-15.6-15.6S7.4,0.4,16,0.4s15.6,7,15.6,15.6S24.6,31.6,16,31.6z"/>
	<path class="st1" d="M16,0.8c8.4,0,15.2,6.8,15.2,15.2S24.4,31.2,16,31.2S0.8,24.4,0.8,16S7.6,0.8,16,0.8 M16,0.1
		C7.2,0.1,0.1,7.2,0.1,16S7.2,31.9,16,31.9S31.9,24.8,31.9,16S24.8,0.1,16,0.1L16,0.1z"/>
</g>
<polygon class="st2" points="26.8,13.2 18.8,13.2 18.8,5.2 13.2,5.2 13.2,13.2 5.2,13.2 5.2,18.8 13.2,18.8 13.2,26.8 18.8,26.8 
	18.8,18.8 26.8,18.8 "/>
</svg>
