<?xml version="1.0" encoding="utf-8"?>
<!-- Generator: Adobe Illustrator 21.0.2, SVG Export Plug-In . SVG Version: 6.00 Build 0)  -->
<svg version="1.1" id="Layer_1" xmlns="http://www.w3.org/2000/svg" xmlns:xlink="http://www.w3.org/1999/xlink" x="0px" y="0px"
	 viewBox="0 0 32 32" style="enable-background:new 0 0 32 32;" xml:space="preserve">
<style type="text/css">
	.st0{fill:#4A6694;stroke:#3B3B3B;stroke-miterlimit:10;}
</style>
<title>new-body</title>
<g id="new-body">
	<g id="new-body-2">
		<path class="st0" d="M29.9,19.4c-0.4,0.4-0.8,0.6-1.3,0.6h-8.5v8.5c0,1.1-0.9,1.9-1.9,1.9h-4c-1.1,0-1.9-0.9-1.9-1.9V20H3.6
			c-0.5,0-1-0.2-1.3-0.6C1.9,19,1.7,18.5,1.7,18v-3.8c0-0.5,0.2-1,0.6-1.3c0.3-0.5,0.8-0.7,1.3-0.7h8.5V3.6c0-0.5,0.2-1,0.6-1.3
			c0.4-0.4,0.9-0.6,1.4-0.6h3.8c0.5,0,1,0.2,1.3,0.6c0.4,0.3,0.6,0.8,0.7,1.3v8.5h8.6c1.1,0,1.9,0.9,1.9,1.9v3.9
			C30.3,18.4,30.2,19,29.9,19.4z"/>
	</g>
</g>
</svg>
