<?xml version="1.0" encoding="utf-8"?>
<!-- Generator: Adobe Illustrator 21.0.2, SVG Export Plug-In . SVG Version: 6.00 Build 0)  -->
<svg version="1.1" id="Layer_1" xmlns="http://www.w3.org/2000/svg" xmlns:xlink="http://www.w3.org/1999/xlink" x="0px" y="0px"
	 viewBox="0 0 32 32" style="enable-background:new 0 0 32 32;" xml:space="preserve">
<style type="text/css">
	.st0{fill:#4A6694;stroke:#3B3B3B;stroke-miterlimit:10;}
</style>
<title>frame-range</title>
<g id="frame-range">
	<g id="match-frame-range">
		<path class="st0" d="M8.1,7C7.9,6.8,7.8,6.7,7.5,6.7H5.8C5.3,6.7,5,7,4.9,7.5v0.1v1.7c0,0.4,0.3,0.8,0.7,0.8h0.1h1.7
			c0.4,0,0.8-0.3,0.8-0.7V9.3V7.6C8.3,7.3,8.3,7.1,8.1,7z M8.1,12c-0.2-0.2-0.4-0.3-0.6-0.3H5.8C5.4,11.7,5,12,5,12.4v0.1v1.7
			C5,14.6,5.3,15,5.7,15h0.1h1.7c0.4,0,0.8-0.3,0.8-0.7v-0.1v-1.7C8.3,12.4,8.3,12.2,8.1,12z M8.1,17.1c-0.2-0.2-0.4-0.3-0.6-0.3
			H5.8c-0.4,0-0.8,0.3-0.8,0.7v0.1v1.7c0,0.4,0.3,0.8,0.7,0.8h0.1h1.7c0.4,0,0.8-0.3,0.8-0.7v-0.1v-1.7C8.3,17.5,8.3,17.2,8.1,17.1z
			 M21.6,7c-0.2-0.2-0.4-0.3-0.6-0.3H10.8C10.4,6.7,10,7,10,7.4v0.1v6.8c0,0.4,0.3,0.8,0.7,0.8h0.1h10.1c0.4,0,0.8-0.3,0.8-0.7v-0.1
			V7.6C21.8,7.3,21.7,7.1,21.6,7z M8.1,22.2c-0.2-0.2-0.4-0.3-0.6-0.3H5.8c-0.4,0-0.8,0.3-0.8,0.7v0.1v1.7c0,0.4,0.3,0.8,0.7,0.8
			h0.1h1.7c0.4,0,0.8-0.3,0.8-0.7v-0.1v-1.7C8.3,22.5,8.3,22.3,8.1,22.2z M26.6,7c-0.2-0.2-0.4-0.3-0.6-0.3h-1.7
			c-0.4,0-0.8,0.3-0.8,0.7v0.1v1.7c0,0.4,0.3,0.8,0.7,0.8h0.1h1.7c0.4,0,0.8-0.3,0.8-0.7V9.2V7.6C26.9,7.3,26.8,7.1,26.6,7z
			 M21.6,17.1c-0.2-0.2-0.4-0.3-0.6-0.3H10.8c-0.4,0-0.8,0.3-0.8,0.7v0.1v6.8c0,0.4,0.3,0.8,0.7,0.8h0.1h10.1c0.4,0,0.8-0.3,0.8-0.7
			v-0.1v-6.8C21.8,17.5,21.7,17.2,21.6,17.1z M26.6,12c-0.2-0.2-0.4-0.3-0.6-0.3h-1.7c-0.4,0-0.8,0.3-0.8,0.7v0.1v1.7
			c0,0.4,0.3,0.8,0.7,0.8h0.1h1.7c0.4,0,0.8-0.3,0.8-0.7v-0.1v-1.7C26.9,12.4,26.8,12.2,26.6,12z M26.6,17.1
			c-0.2-0.2-0.4-0.3-0.6-0.3h-1.7c-0.4,0-0.8,0.3-0.8,0.7v0.1v1.7c0,0.4,0.3,0.8,0.7,0.8h0.1h1.7c0.4,0,0.8-0.3,0.8-0.7v-0.1v-1.7
			C26.9,17.5,26.8,17.2,26.6,17.1z M26.6,22.2c-0.2-0.2-0.4-0.3-0.6-0.3h-1.7c-0.4,0-0.8,0.3-0.8,0.7v0.1v1.7c0,0.4,0.3,0.8,0.7,0.8
			h0.1h1.7c0.4,0,0.8-0.3,0.8-0.7v-0.1v-1.7C26.9,22.5,26.8,22.3,26.6,22.2z M28,26.4c-0.4,0.4-1,0.6-1.5,0.6H5.4
			c-0.6,0-1.1-0.2-1.5-0.6s-0.6-1-0.6-1.5V7.1c0-0.6,0.2-1.1,0.6-1.5C4.3,5.2,4.8,5,5.4,5h21.1c0.6,0,1.1,0.2,1.5,0.6s0.6,1,0.6,1.5
			v17.7C28.5,25.4,28.3,26,28,26.4z"/>
	</g>
</g>
</svg>
