<?xml version="1.0" encoding="utf-8"?>
<!-- Generator: Adobe Illustrator 21.0.2, SVG Export Plug-In . SVG Version: 6.00 Build 0)  -->
<svg version="1.1" id="Layer_1" xmlns="http://www.w3.org/2000/svg" xmlns:xlink="http://www.w3.org/1999/xlink" x="0px" y="0px"
	 viewBox="0 0 32 32" style="enable-background:new 0 0 32 32;" xml:space="preserve">
<style type="text/css">
	.st0{fill:#FFFFFF;}
	.st1{clip-path:url(#SVGID_2_);fill:#003994;}
	.st2{fill:none;stroke:#333333;stroke-width:0.75;stroke-miterlimit:10;}
	.st3{display:none;}
	.st4{display:inline;fill:#FFFFFF;}
	.st5{display:inline;fill:#333333;}
	.st6{fill:#FFFFFF;stroke:#333333;stroke-width:0.75;stroke-miterlimit:10;}
</style>
<circle class="st0" cx="15.9" cy="16.1" r="14.6"/>
<g id="g3606" transform="matrix(1.9140664,0,0,1.9140664,-1228.1565,-289.91756)">
	<g>
		<defs>
			<path id="SVGID_1_" d="M650,167.4c4.2,0,7.5-3.4,7.5-7.6c0-4.1-3.4-7.5-7.5-7.5c-4.1,0-7.5,3.4-7.5,7.5
				C642.5,164,645.9,167.4,650,167.4L650,167.4z"/>
		</defs>
		<clipPath id="SVGID_2_">
			<use xlink:href="#SVGID_1_"  style="overflow:visible;"/>
		</clipPath>
		<path id="path3530" class="st1" d="M647.5,153c0,0-0.1,0-0.1,0C647.4,153,647.5,153,647.5,153 M649.9,153.5l0-0.4l-0.4,0l0.1,0.3
			L649.9,153.5 M645.6,159.7c-0.1-0.1,0-0.4,0-0.4s-1.1-0.6-2.4-1c-0.2,0-0.1-0.4,0.1-0.5l-0.1-0.3c0-0.2,0.3-1,0.5-1.1
			c0.3-0.1,0,0.5,0,0.5l-0.3,0.2c0,0,0.3,0.4,0.4,0.4c0.1,0,0.2-0.2,0.2-0.2l-0.4-0.2l0.3-0.1l0-0.1l0.1,0l0.5-0.8
			c0.4-0.2,0.8-0.3,0.9-0.4c0.1,0,0.8-0.5,0.9-0.6c0.1-0.1,0.4-0.1,0.5-0.1c0.1,0,0.3,0,0.3-0.3c0-0.3,0.1-0.3,0.2-0.2
			c0.1,0.1-0.1,0.2,0.1,0.2c0.2,0,0.3,0.2,0.5,0c0.1-0.1,0-0.2-0.1-0.3h1.4l0.2-0.4l-0.3,0l-1.2-0.1v-0.1l-0.1,0
			c0.1-0.7,0.9-0.6,0.3-1c0,0-0.6,0.8-0.7,0.8c-0.2,0-0.5,0-0.6,0c-0.1,0.1,0.2-0.4,0.4-0.5c-0.3,0.1-0.8-0.2-1.8,0.5
			c-0.3,0.2-1.1,1.1-1.4,1.5c-1.4,1.6-1.5,3-1.5,3.1c0,0.1,0.3,0.2,0.3,0.3c0,0.1-0.5,0.6-0.5,0.9c0,0.1-0.3,1.3,0.3,2.8
			c0.5,1.4,1.5,2.7,1.6,2.8l0.4-0.2c0,0-0.6-1-0.6-1.1c0-0.1,0.7-1.5,1-1.5c0.3,0,0.3,0.1,0.5,0c0.2-0.1,0.3-1.1,0.6-1.2
			c0.2-0.1,0.5-0.2,0.5-0.5C646.6,160.2,645.7,159.8,645.6,159.7 M651.2,152.6l-0.7-0.2l0.1,0.4L651.2,152.6 M648.6,153.5
			c0.1,0,1.6-1,1.5-1c-0.2,0-0.2,0-0.6,0c-0.4,0-0.8,0.6-0.9,0.7C648.4,153.2,648.4,153.5,648.6,153.5 M655.6,160.8l0.2-0.3
			l-0.2-0.1l-0.1,0.2l-0.2,0.3l0.1,0.1L655.6,160.8 M656.5,161.6l0-0.4h-0.3l0,0.3l-0.3,0l-0.1-0.3l-0.1-0.1l-0.2,0.2l-0.2,0l0,0.2
			l0.2,0v1.5l0.7,0.2c0,0,0,0.1,0,0.1c0,0.2,0.2,0.2,0.4,0.2c0.1,0,0.5-0.2,0.6-0.5c0.2-0.4,0.3-1,0.3-1.2l-0.1-0.2l-0.5,0.2
			L656.5,161.6L656.5,161.6 M656.2,155.4c-1.1-1.7-3.8-2.8-3.8-2.8l-0.7,0.4l-0.1-0.2l-0.2-0.1v0.2l0.2,0.2l-0.1,0.1l-0.6,0
			l-1.3,0.7l0.1,0.6l-0.1,0l-0.1,0.1l0.4,0.6l0,0.2l-0.3,0.1v0.4l-0.2,0l0,0.3l-1.5,1c-0.1,0.1-0.2,0.2-0.2,0.3l0,0.3
			c0,0.1,0,0.2,0.1,0.3c0.2,0.2,0.6,0.7,0.9,0.9c0.1,0.1,0.2,0.1,0.3,0.1c0.3,0,1,0,1.2-0.1c0.2-0.1,0.1,0.1,0.1,0.2
			c0.1,0.1,0.1,0.6,0.2,0.6c0.1,0,0,0.3,0.1,0.4c0.1,0.1,0.1,1.2,0.1,1.2s0.6,1,0.6,1.3c0,0.3,0,0.2,0.4,0.2c0.5,0,0.6-0.2,0.7-0.3
			c0.1-0.1,0.1-0.2,0.2-0.4c0.1-0.1,0.3-0.7,0.5-0.9c0.2-0.2,0.8-0.3,0.9-0.7c0-0.3,0.3-0.6,0.3-0.6l1.1-1.1l0,0.2l0,0.6l0.3-0.1
			l0-0.6l-0.1-0.1l0,0c0,0-0.1-0.1-0.2-0.1c-0.1,0-0.7,0.1-0.8,0.1c-0.1,0-0.5-1.1-0.6-1.2c-0.1,0-0.5-0.8-0.5-0.8s1.1,1.3,1.3,1.8
			c0.1,0.3,0.5,0,0.8-0.3l0.1,0.2l0.2,0l0-0.2h0.2v0.3l-0.1,0.2l0,0.3l0.2,0.2l0.1-0.2l0.3-0.3l0.4-0.2l0.1,0.2l0,0.3l-0.1,0.3
			l-0.2,0.2l-0.1,0.4v0.2l-0.2-0.1l0-0.4l-0.3,0l-0.1,0.4l0.2,0.3l0.5,0.1l0.4-0.4l0-0.8l0.2-0.2c0.1,0.3,0.2,0.6,0.2,0.9
			c0,0.3,0.3-0.2,0.1-1.2C657.5,159,657.3,156.6,656.2,155.4L656.2,155.4z M651.3,156.4l-1.3,0l0.6-0.5h0.3l0.5,0.3L651.3,156.4
			 M652.9,156.3v0.2h-0.6l0,0.1l-0.3,0l0,0.1l-0.2,0l-0.4-0.1l0.1-0.1l0.1-0.1l0.2-0.3l0.1,0.2l0.4,0l0.2-0.2l0.8,0.1L652.9,156.3
			 M653,156l-0.3,0l0-0.2l0.4,0l0-0.2l0.3,0.3L653,156L653,156 M654.4,163.2l-0.2,0.1l0,0.3h0.2v-0.3l0.2-0.3v-0.5l-0.1,0
			L654.4,163.2L654.4,163.2 M652.7,162.5c0,0-0.2,0,0,0.1c0.2,0.1,1-1.1,1-1.1l-0.7,0.4L652.7,162.5L652.7,162.5 M651.4,167
			l-0.1-0.1l-0.3,0l0,0.1l-0.4,0l0-0.2h-0.3l-0.3,0.2h-0.6l0-0.1l-0.9-0.1l-0.1,0.1l-0.4-0.1l0-0.3l-0.2,0l-0.2,0.4l-0.7,0
			c0.1,0.1,1.1,0.7,2.6,0.8c2,0.2,3-0.3,3-0.3l-0.1-0.1L651.4,167L651.4,167L651.4,167L651.4,167z"/>
	</g>
</g>
<circle class="st2" cx="15.9" cy="16.1" r="14.6"/>
<g class="st3">
	<path class="st4" d="M23.6,31.3c-0.3,0-0.6-0.3-0.6-0.6v-4.4l-1.5,1.6C21.4,28,21.2,28,21.1,28c-0.3,0-0.6-0.3-0.6-0.6V25
		c0-0.4,0.1-0.7,0.4-1l3.1-3.1c0.3-0.3,0.6-0.4,0.9-0.4c0.4,0,0.7,0.1,0.9,0.4l3.1,3.1c0.3,0.3,0.4,0.6,0.4,1v2.4
		c0,0.2-0.1,0.3-0.2,0.5C29,28,28.9,28,28.7,28l0,0c-0.2,0-0.3-0.1-0.4-0.2l-1.5-1.5v4.3c0,0.3-0.3,0.6-0.6,0.6H23.6z"/>
	<path class="st5" d="M24.9,20.9c0.2,0,0.5,0.1,0.7,0.3l3.1,3.1c0.2,0.2,0.3,0.5,0.3,0.7v2.4c0,0.2-0.1,0.2-0.3,0.2
		c-0.1,0-0.1,0-0.2-0.1l-1.7-1.7c-0.1-0.1-0.1-0.1-0.2-0.1c-0.1,0-0.3,0.1-0.3,0.2v4.6c0,0.1-0.1,0.2-0.2,0.2h-2.5
		c-0.1,0-0.2-0.1-0.2-0.2v-4.6c0-0.2-0.1-0.2-0.3-0.2c-0.1,0-0.1,0-0.2,0.1l-1.7,1.7c-0.1,0.1-0.1,0.1-0.2,0.1
		c-0.1,0-0.3-0.1-0.3-0.2V25c0-0.3,0.1-0.5,0.3-0.7l3.1-3.1C24.4,21,24.6,20.9,24.9,20.9 M24.9,20.1c-0.5,0-0.9,0.2-1.2,0.5
		l-3.1,3.1c-0.3,0.3-0.5,0.8-0.5,1.3v2.4c0,0.6,0.4,1,1,1c0.3,0,0.5-0.1,0.7-0.3l0.9-0.9v3.4c0,0.6,0.4,1,1,1h2.5c0.6,0,1-0.4,1-1
		v-3.4l0.9,0.9c0.2,0.2,0.4,0.3,0.7,0.3c0.6,0,1-0.4,1-1V25c0-0.5-0.2-0.9-0.5-1.3l-3.1-3.1C25.8,20.3,25.3,20.1,24.9,20.1
		L24.9,20.1z"/>
</g>
<polygon class="st6" points="29,24.5 24.9,20.5 20.8,24.5 20.8,28 23.4,25.4 23.4,31 26.4,31 26.4,25.4 29,28 "/>
</svg>
