<?xml version="1.0" encoding="utf-8"?>
<!-- Generator: Adobe Illustrator 21.0.2, SVG Export Plug-In . SVG Version: 6.00 Build 0)  -->
<svg version="1.1" id="Layer_1" xmlns="http://www.w3.org/2000/svg" xmlns:xlink="http://www.w3.org/1999/xlink" x="0px" y="0px"
	 viewBox="0 0 32 32" style="enable-background:new 0 0 32 32;" xml:space="preserve">
<style type="text/css">
	.st0{fill:#4A6694;stroke:#3B3B3B;stroke-miterlimit:10;}
</style>
<title>publish</title>
<g id="publish">
	<g id="publish-2">
		<path class="st0" d="M2.1,16.7c0-0.6,0.2-1.1,0.6-1.5L14.3,3.4c0.4-0.4,1-0.7,1.7-0.6c0.6,0,1.2,0.2,1.6,0.6l11.7,11.7
			c0.4,0.4,0.7,1,0.6,1.6c0,0.6-0.2,1.2-0.6,1.7L28,19.8c-0.4,0.4-1,0.7-1.7,0.6c-0.6,0-1.2-0.2-1.6-0.6l-5.2-5.4V27
			c0,1.3-1,2.3-2.3,2.3l0,0h-2.3c-1.3,0-2.3-1-2.3-2.3l0,0V14.4l-5.3,5.3c-0.4,0.4-1,0.7-1.6,0.6c-0.6,0-1.2-0.2-1.7-0.6l-1.3-1.4
			C2.3,17.9,2.1,17.3,2.1,16.7z"/>
	</g>
</g>
</svg>
