<?xml version="1.0" encoding="utf-8"?>
<!-- Generator: Adobe Illustrator 21.0.2, SVG Export Plug-In . SVG Version: 6.00 Build 0)  -->
<svg version="1.1" id="Layer_1" xmlns="http://www.w3.org/2000/svg" xmlns:xlink="http://www.w3.org/1999/xlink" x="0px" y="0px"
	 viewBox="0 0 32 32" style="enable-background:new 0 0 32 32;" xml:space="preserve">
<style type="text/css">
	.st0{fill:#4A6694;stroke:#3B3B3B;stroke-miterlimit:10;}
</style>
<title>quote</title>
<g id="quote">
	<g id="brent">
		<path class="st0" d="M15,17.9v5.7c0,1.6-1.2,2.8-2.8,2.9H6.5c-0.8,0-1.5-0.3-2.1-0.8s-0.9-1.3-0.8-2.1V13.2c0-1,0.2-2,0.6-2.9
			C5,8.4,6.4,6.9,8.3,6.1c0.9-0.4,1.9-0.6,2.9-0.6h0.9c0.5,0,0.9,0.4,0.9,1l0,0v2c0,0.5-0.4,0.9-0.9,1h-0.9c-2.1,0-3.8,1.7-3.8,3.8
			l0,0v0.5c0,0.8,0.6,1.4,1.4,1.4h3.3c1.5-0.1,2.8,1,2.9,2.5C15,17.7,15,17.8,15,17.9z M28.4,17.9v5.7c0,1.6-1.2,2.8-2.8,2.9h-5.7
			c-1.6,0-2.8-1.2-2.9-2.8l0,0V13.2c0-1,0.2-2,0.6-2.9c0.7-1.9,2.2-3.4,4-4.1c0.9-0.4,1.9-0.6,3-0.6h0.9c0.5,0,0.9,0.4,0.9,1l0,0v2
			c0,0.5-0.4,0.9-0.9,1h-0.9c-2.1,0-3.8,1.7-3.8,3.8l0,0v0.5c0,0.8,0.6,1.4,1.4,1.4h3.3c1.4-0.2,2.7,0.8,2.9,2.1
			C28.4,17.6,28.4,17.7,28.4,17.9z"/>
	</g>
</g>
</svg>
