<?xml version="1.0" encoding="utf-8"?>
<!-- Generator: Adobe Illustrator 21.0.2, SVG Export Plug-In . SVG Version: 6.00 Build 0)  -->
<svg version="1.1"
	 id="svg2" inkscape:version="0.48.3.1 r9886" sodipodi:docname="folder_close_alt_font_awesome.svg" xmlns:cc="http://creativecommons.org/ns#" xmlns:dc="http://purl.org/dc/elements/1.1/" xmlns:inkscape="http://www.inkscape.org/namespaces/inkscape" xmlns:rdf="http://www.w3.org/1999/02/22-rdf-syntax-ns#" xmlns:sodipodi="http://sodipodi.sourceforge.net/DTD/sodipodi-0.dtd" xmlns:svg="http://www.w3.org/2000/svg"
	 xmlns="http://www.w3.org/2000/svg" xmlns:xlink="http://www.w3.org/1999/xlink" x="0px" y="0px" viewBox="0 0 32 32"
	 style="enable-background:new 0 0 32 32;" xml:space="preserve">
<style type="text/css">
	.st0{display:none;fill:#003994;}
	.st1{fill:#003994;}
	.st2{fill:#333333;}
	.st3{display:none;}
	.st4{display:inline;fill:#555555;}
	.st5{fill:#FFFFFF;}
</style>
<path id="path6" inkscape:connector-curvature="0" class="st0" d="M28.6,25V12.4c0-0.5-0.2-0.9-0.5-1.2c-0.3-0.3-0.7-0.5-1.2-0.5
	H14.4c-0.5,0-0.9-0.2-1.2-0.5c-0.3-0.3-0.5-0.7-0.5-1.2V7.9c0-0.5-0.2-0.9-0.5-1.2c-0.3-0.3-0.7-0.5-1.2-0.5H5.2
	C4.7,6.2,4.3,6.3,4,6.7S3.5,7.4,3.5,7.9V25c0,0.5,0.2,0.9,0.5,1.2s0.7,0.5,1.2,0.5h21.7c0.5,0,0.9-0.2,1.2-0.5
	C28.5,25.9,28.6,25.5,28.6,25z M30.9,12.4V25c0,1.1-0.4,2-1.2,2.8C29,28.6,28,29,26.9,29H5.2c-1.1,0-2-0.4-2.8-1.2
	c-0.8-0.8-1.2-1.7-1.2-2.8V7.9c0-1.1,0.4-2,1.2-2.8s1.7-1.2,2.8-1.2h5.7c1.1,0,2,0.4,2.8,1.2s1.2,1.7,1.2,2.8v0.6h12
	c1.1,0,2,0.4,2.8,1.2C30.5,10.4,30.9,11.4,30.9,12.4z"/>
<g>
	<g>
		<path class="st1" d="M0.6,28V2.7C0.6,2.3,0.9,2,1.3,2h12.4c0.4,0,0.7,0.3,0.7,0.7v4.2h17V28H0.6z"/>
		<path class="st2" d="M13.7,2.4c0.2,0,0.3,0.2,0.3,0.3v3.8v0.8h0.8h16.3v20.4H0.9V2.7c0-0.2,0.1-0.3,0.3-0.3H13.7 M13.7,1.6H1.3
			c-0.6,0-1.1,0.5-1.1,1.1v25.7h31.6V6.5h-17V2.7C14.8,2.1,14.3,1.6,13.7,1.6L13.7,1.6z"/>
	</g>
	<g class="st3">
		<polygon class="st4" points="0.4,2.4 14.6,2.4 14.8,7.3 0.2,7.3 		"/>
	</g>
	<g>
		<path class="st5" d="M23.6,30.7c-0.5,0-1-0.2-1.4-0.6l-3.7-3.7c-0.4-0.4-0.6-0.9-0.6-1.4s0.2-1,0.6-1.4l3.7-3.7
			c0.4-0.4,0.9-0.6,1.4-0.6c0.5,0,1,0.2,1.4,0.6l3.7,3.7c0.4,0.4,0.6,0.9,0.6,1.4s-0.2,1-0.6,1.4L25,30.1
			C24.6,30.5,24.1,30.7,23.6,30.7z"/>
		<path class="st2" d="M23.6,19.7c0.4,0,0.8,0.2,1.2,0.5l3.7,3.7c0.6,0.6,0.6,1.7,0,2.3l-3.7,3.7c-0.3,0.3-0.7,0.5-1.2,0.5
			c-0.4,0-0.8-0.2-1.2-0.5l-3.7-3.7c-0.6-0.6-0.6-1.7,0-2.3l3.7-3.7C22.7,19.8,23.1,19.7,23.6,19.7 M23.6,18.9
			c-0.6,0-1.2,0.2-1.7,0.7l-3.7,3.7c-0.5,0.5-0.7,1.1-0.7,1.7s0.2,1.2,0.7,1.7l3.7,3.7c0.5,0.5,1.1,0.7,1.7,0.7
			c0.6,0,1.2-0.2,1.7-0.7l3.7-3.7c0.5-0.5,0.7-1.1,0.7-1.7s-0.2-1.2-0.7-1.7l-3.7-3.7C24.8,19.1,24.2,18.9,23.6,18.9L23.6,18.9z"/>
	</g>
</g>
</svg>
