<?xml version="1.0" encoding="utf-8"?>
<!-- Generator: Adobe Illustrator 21.0.2, SVG Export Plug-In . SVG Version: 6.00 Build 0)  -->
<svg version="1.1" id="Layer_1" xmlns="http://www.w3.org/2000/svg" xmlns:xlink="http://www.w3.org/1999/xlink" x="0px" y="0px"
	 viewBox="0 0 32 32" style="enable-background:new 0 0 32 32;" xml:space="preserve">
<style type="text/css">
	.st0{fill:#4A6694;stroke:#3B3B3B;stroke-miterlimit:10;}
</style>
<title>refresh-scripts</title>
<g id="reload-scripts">
	<g id="reload">
		<path class="st0" d="M29.5,18.5L29.5,18.5c-0.7,3.3-2.5,6.2-5,8.3s-5.7,3.2-9,3.2c-1.8,0-3.6-0.4-5.3-1.1c-1.7-0.6-3.3-1.7-4.6-3
			l-2.4,2.4c-0.4,0.5-1.1,0.5-1.6,0.1c0,0,0,0-0.1-0.1l0,0C1.2,28.3,1,28,1,27.6v-8.4c0-0.3,0.1-0.7,0.4-0.9
			c0.2-0.2,0.5-0.4,0.9-0.4h8.4c0.6,0,1.1,0.5,1.2,1.1v0.1c0,0.3-0.1,0.7-0.4,0.9l-2.6,2.6c0.9,0.8,1.9,1.5,3,1.9
			c2.7,1.1,5.7,0.9,8.2-0.6c1.5-0.8,2.7-2,3.5-3.4c0.4-0.7,0.7-1.5,1-2.2c0.1-0.3,0.3-0.5,0.6-0.5h3.6
			C29.1,17.9,29.4,18.1,29.5,18.5z M30,3.4v8.4c0,0.7-0.6,1.2-1.3,1.3h-8.4c-0.6,0-1.1-0.5-1.2-1.1v-0.1c0-0.3,0.1-0.7,0.4-0.9
			l2.6-2.6C18.2,4.8,12,5,8.4,8.9c-0.4,0.5-0.8,1-1.1,1.5c-0.4,0.7-0.7,1.5-1,2.2C6.2,12.9,6,13.1,5.7,13H1.9
			c-0.3,0-0.6-0.3-0.6-0.6v-0.1C2.8,5.7,8.7,0.9,15.5,1c1.8,0,3.6,0.4,5.3,1.1c1.7,0.7,3.3,1.7,4.6,2.9l2.4-2.4
			C28.3,2.1,29,2,29.5,2.4c0,0,0,0,0.1,0.1l0,0C29.9,2.7,30,3,30,3.4z"/>
	</g>
</g>
</svg>
