<?xml version="1.0" encoding="utf-8"?>
<!-- Generator: Adobe Illustrator 21.0.2, SVG Export Plug-In . SVG Version: 6.00 Build 0)  -->
<svg version="1.1"
	 id="svg2" inkscape:version="0.48.3.1 r9886" sodipodi:docname="refresh_font_awesome.svg" xmlns:cc="http://creativecommons.org/ns#" xmlns:dc="http://purl.org/dc/elements/1.1/" xmlns:inkscape="http://www.inkscape.org/namespaces/inkscape" xmlns:rdf="http://www.w3.org/1999/02/22-rdf-syntax-ns#" xmlns:sodipodi="http://sodipodi.sourceforge.net/DTD/sodipodi-0.dtd" xmlns:svg="http://www.w3.org/2000/svg"
	 xmlns="http://www.w3.org/2000/svg" xmlns:xlink="http://www.w3.org/1999/xlink" x="0px" y="0px" viewBox="0 0 32 32"
	 style="enable-background:new 0 0 32 32;" xml:space="preserve">
<style type="text/css">
	.st0{fill:#003994;}
</style>
<path id="path6" inkscape:connector-curvature="0" class="st0" d="M29.2,18.7c0,0.1,0,0.1,0,0.1c-0.8,3.2-2.4,5.8-4.8,7.8
	s-5.3,3-8.5,3c-1.7,0-3.4-0.3-5-1S7.7,27,6.4,25.8l-2.3,2.3c-0.2,0.2-0.5,0.3-0.8,0.3s-0.6-0.1-0.8-0.3c-0.2-0.2-0.3-0.5-0.3-0.8v-8
	c0-0.3,0.1-0.6,0.3-0.8c0.2-0.2,0.5-0.3,0.8-0.3h8c0.3,0,0.6,0.1,0.8,0.3c0.2,0.2,0.3,0.5,0.3,0.8s-0.1,0.6-0.3,0.8l-2.4,2.4
	c0.8,0.8,1.8,1.4,2.9,1.8c1.1,0.4,2.2,0.6,3.3,0.6c1.6,0,3.1-0.4,4.5-1.2s2.5-1.8,3.3-3.2c0.1-0.2,0.4-0.9,0.9-2.1
	c0.1-0.3,0.3-0.4,0.5-0.4h3.4c0.2,0,0.3,0.1,0.4,0.2C29.1,18.4,29.2,18.5,29.2,18.7z M29.6,4.4v8c0,0.3-0.1,0.6-0.3,0.8
	c-0.2,0.2-0.5,0.3-0.8,0.3h-8c-0.3,0-0.6-0.1-0.8-0.3c-0.2-0.2-0.3-0.5-0.3-0.8c0-0.3,0.1-0.6,0.3-0.8l2.5-2.5
	c-1.8-1.6-3.8-2.4-6.2-2.4c-1.6,0-3.1,0.4-4.5,1.2C10,8.6,8.9,9.7,8.1,11c-0.1,0.2-0.4,0.9-0.9,2.1c-0.1,0.3-0.3,0.4-0.5,0.4H3.1
	c-0.2,0-0.3-0.1-0.4-0.2c-0.1-0.1-0.2-0.2-0.2-0.4v-0.1c0.8-3.2,2.4-5.8,4.8-7.8s5.3-3,8.6-3c1.7,0,3.4,0.3,5.1,1
	c1.6,0.7,3.1,1.6,4.4,2.8l2.3-2.3c0.2-0.2,0.5-0.3,0.8-0.3s0.6,0.1,0.8,0.3C29.5,3.8,29.6,4.1,29.6,4.4z"/>
</svg>
