<?xml version="1.0" encoding="utf-8"?>
<!-- Generator: Adobe Illustrator 21.0.2, SVG Export Plug-In . SVG Version: 6.00 Build 0)  -->
<svg version="1.1" id="Layer_1" xmlns="http://www.w3.org/2000/svg" xmlns:xlink="http://www.w3.org/1999/xlink" x="0px" y="0px"
	 viewBox="0 0 32 32" style="enable-background:new 0 0 32 32;" xml:space="preserve">
<style type="text/css">
	.st0{fill:#4A6694;stroke:#3B3B3B;stroke-miterlimit:10;}
</style>
<title>renderman</title>
<g id="r">
	<g>
		<path class="st0" d="M23.1,15.2c1.5,0,2.8-1.1,2.8-2.6c-0.2-1.5-1.6-2.7-3.1-2.5c-1.3,0.1-2.4,1.2-2.5,2.5
			C20.3,14,21.6,15.2,23.1,15.2z"/>
		<path class="st0" d="M15.3,6.1c-2.7,0.6-4,4.4-4.7,8.6C9.7,10.9,8.2,7.3,6.1,4c2.7,6.5,3.5,14.8,3.7,19.7c0,2.5,0.1,4.3,0.1,4.3
			h1.6c0.2-1.8,0.2-3.6,0.1-5.4c0.3-5.4,1.2-12.9,3.9-13.1c1.3,0,2.5,0.5,3.3,1.5c0.3-1.2,1.2-2,2.4-2.3C20.9,8.1,18.4,5.4,15.3,6.1
			"/>
	</g>
</g>
</svg>
