<?xml version="1.0" encoding="utf-8"?>
<!-- Generator: Adobe Illustrator 21.0.2, SVG Export Plug-In . SVG Version: 6.00 Build 0)  -->
<svg version="1.1" id="Layer_1" xmlns="http://www.w3.org/2000/svg" xmlns:xlink="http://www.w3.org/1999/xlink" x="0px" y="0px"
	 viewBox="0 0 32 32" style="enable-background:new 0 0 32 32;" xml:space="preserve">
<style type="text/css">
	.st0{fill:#4A6694;stroke:#3B3B3B;stroke-miterlimit:10;}
</style>
<title>rollback</title>
<g id="rollback">
	<g id="rollback-2">
		<path class="st0" d="M30.4,16c0,1.9-0.4,3.8-1.2,5.6c-1.5,3.5-4.2,6.2-7.7,7.7c-1.8,0.8-3.7,1.1-5.6,1.1c-2.1,0-4.2-0.5-6.2-1.3
			c-1.9-0.9-3.6-2.2-4.9-3.8c-0.1-0.1-0.1-0.2-0.1-0.4c0-0.2,0.1-0.3,0.2-0.4l2.7-2.7c0.2-0.2,0.3-0.2,0.5-0.2
			c0.2,0,0.3,0.1,0.4,0.2c2.6,3.4,7.3,4.7,11.3,3c2.3-1,4.1-2.8,5.1-5.1c1-2.4,1-5,0-7.4c-1-2.3-2.8-4.1-5.1-5.1
			c-1.2-0.6-2.4-0.9-3.7-0.8c-1.2,0-2.4,0.2-3.6,0.7c-1.1,0.4-2.1,1.1-3,1.9l2.6,2.6c0.4,0.3,0.5,0.8,0.3,1.3s-0.6,0.8-1.1,0.8H2.9
			c-0.3,0-0.7-0.1-0.9-0.4c-0.2-0.2-0.4-0.5-0.4-0.9V3.9c0-0.5,0.3-0.9,0.8-1.1c0.4-0.2,1-0.1,1.3,0.3l2.4,2.5
			C7.4,4.4,9,3.4,10.7,2.7c3.5-1.4,7.4-1.4,10.9,0.1s6.2,4.2,7.7,7.7C30.1,12.2,30.5,14.1,30.4,16z"/>
	</g>
</g>
</svg>
