<?xml version="1.0" encoding="utf-8"?>
<!-- Generator: Adobe Illustrator 21.0.2, SVG Export Plug-In . SVG Version: 6.00 Build 0)  -->
<svg version="1.1"
	 id="svg11300" inkscape:export-filename="/home/jimmac/Desktop/wi-fi.png" inkscape:export-xdpi="90.000000" inkscape:export-ydpi="90.000000" inkscape:output_extension="org.inkscape.output.svg.inkscape" inkscape:version="0.43+devel" sodipodi:docbase="/home/tigert/cvs/freedesktop.org/tango-icon-theme/scalable/actions" sodipodi:docname="edit-undo.svg" sodipodi:version="0.32" xmlns:cc="http://web.resource.org/cc/" xmlns:dc="http://purl.org/dc/elements/1.1/" xmlns:inkscape="http://www.inkscape.org/namespaces/inkscape" xmlns:rdf="http://www.w3.org/1999/02/22-rdf-syntax-ns#" xmlns:sodipodi="http://inkscape.sourceforge.net/DTD/sodipodi-0.dtd" xmlns:svg="http://www.w3.org/2000/svg"
	 xmlns="http://www.w3.org/2000/svg" xmlns:xlink="http://www.w3.org/1999/xlink" x="0px" y="0px" viewBox="0 0 32 32"
	 style="enable-background:new 0 0 32 32;" xml:space="preserve">
<style type="text/css">
	.st0{fill:#003994;}
	.st1{fill:#333333;}
</style>
<g>
	<g id="path1432" sodipodi:nodetypes="ccccccc">
		<path class="st0" d="M19.9,29.4c3.4-2,4.8-4.7,4.7-7.2c0-4.1-3.6-7.2-8.2-7.2c-0.1,0-0.3,0-0.4,0l-0.5,0v6.7L4.2,11.2l11.4-10v6.5
			l0.6,0c7.3,0,11.8,5.8,11.8,11.1c0,3.3-1.6,6.4-4.5,8.6C22.5,28.2,21.3,28.8,19.9,29.4z"/>
		<path class="st1" d="M15.1,2.3v4.9v1l1,0l0.1,0c7,0,11.3,5.5,11.3,10.6c0,2.6-1.1,5.4-3.7,7.6c0.9-1.4,1.3-2.9,1.3-4.3
			c0-4.3-3.8-7.7-8.7-7.7c-0.2,0-0.3,0-0.5,0l-1,0v1v5.1L4.9,11.2L15.1,2.3 M16.1,0.1L3.4,11.2l12.6,11.6v-7.3c0.1,0,0.3,0,0.4,0
			c10.3,0,13.1,16.3-10.2,16.5c0.6,0,1.1,0,1.7,0c28.4,0,23.6-24.7,8.2-24.7c0,0-0.1,0-0.1,0V0.1L16.1,0.1z"/>
	</g>
</g>
</svg>
