<?xml version="1.0" encoding="utf-8"?>
<!-- Generator: Adobe Illustrator 21.0.2, SVG Export Plug-In . SVG Version: 6.00 Build 0)  -->
<svg version="1.1" id="Layer_1" xmlns="http://www.w3.org/2000/svg" xmlns:xlink="http://www.w3.org/1999/xlink" x="0px" y="0px"
	 viewBox="0 0 32 32" style="enable-background:new 0 0 32 32;" xml:space="preserve">
<style type="text/css">
	.st0{fill:#4A6694;stroke:#3B3B3B;stroke-miterlimit:10;}
</style>
<title>tag</title>
<g id="tag">
	<g id="tag-2">
		<path class="st0" d="M22.7,9.5c1,1,2.5,1,3.5,0l0,0c0.5-0.5,0.7-1.1,0.7-1.7c0-1.4-1.1-2.5-2.5-2.5s-2.5,1.1-2.5,2.5
			C21.9,8.4,22.2,9,22.7,9.5z M2.3,16.9L15.9,3.4c0.6-0.5,1.2-0.9,1.9-1.3c0.7-0.3,1.5-0.5,2.2-0.6h7.9c0.7,0,1.3,0.3,1.7,0.8
			c0.6,0.4,0.9,1,0.9,1.7v7.9c0,0.8-0.2,1.5-0.5,2.2s-0.7,1.4-1.3,1.9L15,29.8c-0.5,0.5-1.1,0.7-1.7,0.7c-0.6,0-1.3-0.3-1.7-0.7
			l-9.4-9.4c-0.9-0.9-0.9-2.4,0-3.3C2.2,17,2.3,17,2.3,16.9z"/>
	</g>
</g>
</svg>
