<?xml version="1.0" encoding="utf-8"?>
<!-- Generator: Adobe Illustrator 21.0.2, SVG Export Plug-In . SVG Version: 6.00 Build 0)  -->
<svg version="1.1" id="Layer_1" xmlns="http://www.w3.org/2000/svg" xmlns:xlink="http://www.w3.org/1999/xlink" x="0px" y="0px"
	 viewBox="0 0 32 32" style="enable-background:new 0 0 32 32;" xml:space="preserve">
<style type="text/css">
	.st0{fill:#4A6694;stroke:#3B3B3B;stroke-width:0.75;stroke-miterlimit:10;}
	.st1{fill:#4A6694;stroke:#3B3B3B;stroke-miterlimit:10;}
</style>
<title>untag</title>
<g id="untag">
	<g id="untag-2">
		<path class="st0" d="M18.1,13.9c0.4,0.4,1.1,0.4,1.6,0c0.4-0.4,0.4-1.1,0-1.6c-0.4-0.4-1.1-0.4-1.5,0l0,0
			C17.7,12.8,17.7,13.4,18.1,13.9z M9.1,17.2l6-6c0.5-0.5,1.1-0.8,1.8-0.8h3.6c0.6,0,1.1,0.5,1.1,1.1v3.6c0,0.3-0.1,0.7-0.2,1
			c-0.1,0.3-0.3,0.6-0.6,0.9l-6,6c-0.4,0.4-1.1,0.4-1.6,0L9,18.8c-0.2-0.2-0.3-0.5-0.3-0.8C8.8,17.7,8.9,17.4,9.1,17.2z"/>
		<path class="st1" d="M16,1.5C8,1.5,1.5,8,1.5,16S8,30.5,16,30.5S30.5,24,30.5,16S24,1.5,16,1.5z M25.2,16c0,1.6-0.4,3.1-1.2,4.5
			L11.5,7.9C16,5.5,21.6,7.1,24,11.6C24.8,12.9,25.2,14.4,25.2,16z M6.8,16c0-1.5,0.4-3,1.1-4.4l12.4,12.5
			c-4.5,2.4-10.1,0.7-12.5-3.7C7.1,19,6.8,17.5,6.8,16z"/>
	</g>
</g>
</svg>
