<?xml version="1.0" encoding="utf-8"?>
<!-- Generator: Adobe Illustrator 21.0.2, SVG Export Plug-In . SVG Version: 6.00 Build 0)  -->
<svg version="1.1" id="Layer_1" xmlns="http://www.w3.org/2000/svg" xmlns:xlink="http://www.w3.org/1999/xlink" x="0px" y="0px"
	 viewBox="0 0 32 32" style="enable-background:new 0 0 32 32;" xml:space="preserve">
<style type="text/css">
	.st0{fill:#4A6694;stroke:#3B3B3B;stroke-miterlimit:10;}
</style>
<title>beardling</title>
<path class="st0" d="M5,5.5c-0.2-0.4-0.4-0.7-0.5-1C5.2,3.9,6,3.5,6.7,3C7,2.8,7.3,2.5,7.6,2.5c1.7-0.4,3.4-1,5.1-1.2
	c1.4-0.2,2.6,0.6,3.2,1.8c0.8-0.6,1.6-1.4,2.5-1.6c0.9-0.2,2,0.2,3,0.3C21.9,1.8,22.5,1.8,23,2c0.8,0.3,1.6,0.7,2.3,1.1
	c0.7,0.4,1.4,0.9,2.2,1.4c-0.1,0.2-0.3,0.6-0.6,1c1.6,0.9,2.4,2.3,2.5,4.2c0.1,2.5-0.4,4.9-1.9,6.9c0,0,0,0.1-0.1,0.1
	c-1.4,0.8-1.6,2.2-2,3.6c-0.7,2.4-2.3,4.3-4.5,5.6c-0.2,0.1-0.4,0.3-0.5,0.5c-0.5,0.5-1,1.1-1.6,1.6c-1,1-2,1.9-3.1,2.8
	c-0.4-1.3-1.5-2.1-2.8-2.9c0,0-0.1,0-0.1-0.1c-1.2-1.5-2.9-2.5-4.2-3.8c-1.4-1.5-2.2-3.2-2.5-5.2c-0.1-0.4-0.4-1-0.8-1.2
	c-2.6-1.8-3.8-8-2-10.6c0.4-0.6,0.8-1.2,1.1-1.7C4.7,5.3,4.8,5.4,5,5.5z M15.9,6.5c-1,0.2-2.1,0.5-3.2,0.8c2.2,0.7,4.4,0.7,6.6,0
	C18.1,7,17,6.8,15.9,6.5z"/>
</svg>
