<?xml version="1.0" encoding="utf-8"?>
<!-- Generator: Adobe Illustrator 21.0.2, SVG Export Plug-In . SVG Version: 6.00 Build 0)  -->
<svg version="1.1" id="Layer_1" xmlns="http://www.w3.org/2000/svg" xmlns:xlink="http://www.w3.org/1999/xlink" x="0px" y="0px"
	 viewBox="0 0 32 32" style="enable-background:new 0 0 32 32;" xml:space="preserve">
<style type="text/css">
	.st0{fill:#4A6694;stroke:#3B3B3B;stroke-miterlimit:10;}
</style>
<title>y</title>
<g id="y">
	<path class="st0" d="M27.8,6.1c0-0.5-0.2-1-0.5-1.4l-1.1-1.1c-0.4-0.4-0.9-0.6-1.4-0.5c-0.5,0-1,0.2-1.3,0.5L16,10.8L8.6,3.6
		C8.3,3.2,7.8,3,7.2,3c-0.5,0-1,0.2-1.4,0.5l-1,1.2C4.4,5.1,4.2,5.5,4.2,6.1c0,0.5,0.2,1,0.5,1.3l8.3,8.3V27c0,1.1,0.8,1.9,1.9,2
		l0,0h2c1.1,0,1.9-0.8,2-1.9l0,0V15.7l8.2-8.3C27.5,7.1,27.8,6.6,27.8,6.1z"/>
</g>
</svg>
