/* XPM */
static char * tag_xpm[] = {
"33 33 47 1",
" 	c None",
".	c #343434",
"+	c #313131",
"@	c #575757",
"#	c #3B3B3B",
"$	c #383838",
"%	c #444444",
"&	c #494949",
"*	c #4C4C4C",
"=	c #4E4E4E",
"-	c #4B4B4B",
";	c #474747",
">	c #414141",
",	c #333333",
"'	c #323232",
")	c #737373",
"!	c #999999",
"~	c #424242",
"{	c #9B9B9B",
"]	c #989898",
"^	c #979797",
"/	c #969696",
"(	c #8C8C8C",
"_	c #363636",
":	c #747474",
"<	c #4F4F4F",
"[	c #3F3F3F",
"}	c #909090",
"|	c #797979",
"1	c #757575",
"2	c #3E3E3E",
"3	c #6F6F6F",
"4	c #3D3D3D",
"5	c #959595",
"6	c #8F8F8F",
"7	c #303030",
"8	c #888888",
"9	c #929292",
"0	c #939393",
"a	c #2E2E2E",
"b	c #838383",
"c	c #9A9A9A",
"d	c #5B5B5B",
"e	c #585858",
"f	c #565656",
"g	c #555555",
"h	c #5A5A5A",
".................................",
".................................",
"............................+@#..",
"...............$%&*==-;>,..')!@..",
"..............~{]^////^!(_,:])+..",
".............>]//////////<:^:'...",
"............[^////////}|=1^:,....",
"...........2////////^3,.1/1<_....",
"..........45////////67,1/1=/(,...",
".........45/////////8'.91.|/!>...",
"........45//////////0a..,,}/^;...",
".......25////////////ba'73///-...",
"......[///////////////086^///=...",
".....>^//////////////////////=...",
"....~]///////////////////////*...",
"...%!///////////////////////^&...",
"..[c////////////////////////]%...",
"..d/////////////////////////{$...",
"..;c///////////////////////]~....",
"..'e!/////////////////////^>.....",
"...,@]////////////////////[......",
"....,f^/////////////////52.......",
".....,g^///////////////54........",
".......g//////////////54.........",
"........g////////////54..........",
".........g^//////////2...........",
"..........g^///////^[............",
"..........,f]/////]>.............",
"...........,@!///!~..............",
"............,ec/c%...............",
".............';h[................",
".................................",
"................................."};
