/* XPM */
static char * alembic_tagger_xpm[] = {
"33 33 106 2",
"  	c #343434",
". 	c #333333",
"+ 	c #292929",
"@ 	c #2F2F2F",
"# 	c #272727",
"$ 	c #222222",
"% 	c #393939",
"& 	c #424242",
"* 	c #3F3F3F",
"= 	c #444444",
"- 	c #696969",
"; 	c #838383",
"> 	c #939393",
", 	c #969696",
"' 	c #999999",
") 	c #8F8F8F",
"! 	c #7C7C7C",
"~ 	c #626262",
"{ 	c #A2A2A2",
"] 	c #ABABAB",
"^ 	c #A7A7A7",
"/ 	c #9C9C9C",
"( 	c #757575",
"_ 	c #1D1D1D",
": 	c #505050",
"< 	c #ADADAD",
"[ 	c #5C5C5C",
"} 	c #737373",
"| 	c #6D6D6D",
"1 	c #8B8B8B",
"2 	c #585858",
"3 	c #FFFFFF",
"4 	c #989898",
"5 	c #BEBEBE",
"6 	c #E1E1E1",
"7 	c #F7F7F7",
"8 	c #FCFCFC",
"9 	c #F3F3F3",
"0 	c #D5D5D5",
"a 	c #AFAFAF",
"b 	c #7A7A7A",
"c 	c #7D7D7D",
"d 	c #767676",
"e 	c #C0C0C0",
"f 	c #EBEBEB",
"g 	c #BCBCBC",
"h 	c #E2E2E2",
"i 	c #C9C9C9",
"j 	c #A8A8A8",
"k 	c #BBBBBB",
"l 	c #E9E9E9",
"m 	c #C2C2C2",
"n 	c #4A4A4A",
"o 	c #E0E0E0",
"p 	c #EDEDED",
"q 	c #F9F9F9",
"r 	c #B0B0B0",
"s 	c #ACACAC",
"t 	c #B1B1B1",
"u 	c #656565",
"v 	c #BDBDBD",
"w 	c #575757",
"x 	c #E5E5E5",
"y 	c #FAFAFA",
"z 	c #E8E8E8",
"A 	c #303030",
"B 	c #646464",
"C 	c #949494",
"D 	c #AEAEAE",
"E 	c #161616",
"F 	c #E6E6E6",
"G 	c #FEFEFE",
"H 	c #121212",
"I 	c #535353",
"J 	c #CCCCCC",
"K 	c #F5F5F5",
"L 	c #0F0F0F",
"M 	c #878787",
"N 	c #B6B6B6",
"O 	c #848484",
"P 	c #545454",
"Q 	c #BFBFBF",
"R 	c #CACACA",
"S 	c #F4F4F4",
"T 	c #464646",
"U 	c #B5B5B5",
"V 	c #D4D4D4",
"W 	c #C3C3C3",
"X 	c #868686",
"Y 	c #1A1A1A",
"Z 	c #CECECE",
"` 	c #C1C1C1",
" .	c #191919",
"..	c #A4A4A4",
"+.	c #6E6E6E",
"@.	c #D2D2D2",
"#.	c #4E4E4E",
"$.	c #D1D1D1",
"%.	c #F1F1F1",
"&.	c #929292",
"*.	c #DCDCDC",
"=.	c #A9A9A9",
"-.	c #CBCBCB",
";.	c #F6F6F6",
">.	c #D8D8D8",
",.	c #B9B9B9",
"                                                                  ",
"                        . . + + + + @   . .                       ",
"                    . # $ + % & & *   + $ + . .                   ",
"                  # $ = - ; > , ' , ) ! ~ * $ #                   ",
"              . $ % ! { ] ^ / ' ' / { ^ ] ' ( * _ .               ",
"            . $ : { < ' > , , , , , , , , / ] { [ $ @             ",
"            $ : ] { > , , , , , , , , , , , > / < } # + %         ",
"          + % / { , , , , , , , , , , , , , ' , ' < } $ @         ",
"        . $ | < , , , , , , , , , , , , , / { ^ / ' < ~ _ . .     ",
"        @ . 1 { , , , , , , , , , , , , { ! & 2 , { / { & #       ",
"      3 3 3 3 3 3 3 3 3 3 3 , , , 4 5 6 7 8 9 0 ] a / ] b $       ",
"    . c d 1 e 5 3 f g g g g , , { f 3 h i g j k l 3 m ' / & +     ",
"    + n *   , / 3 o , , , , , ' p q r , , ' ] ] s g t , ] u $ .   ",
"    . [ * # ; ^ 3 o , , , , , m 3 v , , ' / ' ' , , , , ^ b # .   ",
"  . % w . $ w ] 3 o , , , , , x y 4 / ] / , , ] { , , , / 1   @   ",
"  @ = w @ . $ ( 3 6 , , , , , 7 z ] > ~ % A = B C D / ' / > * +   ",
"  @ n ~ @ @ E $ 3 F ] ' / ' { G x - # H   I 3 3 3 3 x > ' , * +   ",
"  + n } $ . | & 3 J b > ' , ) K 0 L   M < N 5 O P 3 o / / , * +   ",
"  @ = ! # ! ' & 3 Q # . % %   R S T ] U ( w > t n 3 V ] / )   @   ",
". @ . ! ! , @ # 3 W $ . % + _ X 3 k U [ Y L $ ^ ! 3 Z ] ^ ! + .   ",
"    $ | ` ( $   3 Q [ { < ^ :  .6 y ..$ + & [ < +.3 @.] ] - $     ",
"    # #.t ; + . 3 $.v ) : b ] @ u %.G W &.> v 5 *.3 J { { = #     ",
"    @ + ) ] * Y 3 x > + Y Y M : & =.m -.f 8 ;.>.{ 1 ^ ] ! # . .   ",
"      $ #.v ( H = U - _   @ & * # 1 U > #.. +   - { / ^ n #   .   ",
"      . $ ( ` : # ' ) + @   @ @ # & / U ] ) M , ^ ' < - $ . .     ",
"        + @ , ,.: | t [ E @   .   $ & ; > ' { / ' < ! # @ .       ",
"          # @ , ,.) / { ~ @ _ $ # # E E * ; / / < ! # +           ",
"        .   # + ! < { ' ^ ) | w n #.2 - M , ^ ^ | # +             ",
"              + $ : 1 ^ ] ] < ] { ^ ] t t ^ M #.$ @               ",
"                . $ @ #.| M , ' { / , 1 } : + $                   ",
"                    . $ $ @ * = #.= & . # $ .                     ",
"                . . . . . . + # # + + @ . . .                     ",
"                                                                  "};
