/* XPM */
static char * untag_xpm[] = {
"33 33 87 1",
" 	c None",
".	c #343434",
"+	c #333333",
"@	c #2F2F2F",
"#	c #3A3A3A",
"$	c #4A4A4A",
"%	c #545454",
"&	c #575757",
"*	c #313131",
"=	c #464646",
"-	c #6A6A6A",
";	c #919191",
">	c #9C9C9C",
",	c #999999",
"'	c #989898",
")	c #979797",
"!	c #323232",
"~	c #858585",
"{	c #9A9A9A",
"]	c #969696",
"^	c #3B3B3B",
"/	c #6D6D6D",
"(	c #737373",
"_	c #393939",
":	c #929292",
"<	c #8C8C8C",
"[	c #747474",
"}	c #444444",
"|	c #494949",
"1	c #585858",
"2	c #8B8B8B",
"3	c #373737",
"4	c #8A8A8A",
"5	c #898989",
"6	c #414141",
"7	c #656565",
"8	c #424242",
"9	c #888888",
"0	c #353535",
"a	c #949494",
"b	c #4B4B4B",
"c	c #3F3F3F",
"d	c #6F6F6F",
"e	c #959595",
"f	c #939393",
"g	c #363636",
"h	c #3E3E3E",
"i	c #909090",
"j	c #8F8F8F",
"k	c #303030",
"l	c #757575",
"m	c #8E8E8E",
"n	c #434343",
"o	c #4C4C4C",
"p	c #828282",
"q	c #3C3C3C",
"r	c #2E2E2E",
"s	c #787878",
"t	c #818181",
"u	c #767676",
"v	c #8D8D8D",
"w	c #838383",
"x	c #3D3D3D",
"y	c #454545",
"z	c #636363",
"A	c #9B9B9B",
"B	c #666666",
"C	c #555555",
"D	c #606060",
"E	c #515151",
"F	c #646464",
"G	c #5A5A5A",
"H	c #616161",
"I	c #565656",
"J	c #595959",
"K	c #4F4F4F",
"L	c #848484",
"M	c #6E6E6E",
"N	c #525252",
"O	c #7B7B7B",
"P	c #6C6C6C",
"Q	c #727272",
"R	c #6B6B6B",
"S	c #484848",
"T	c #5E5E5E",
"U	c #5D5D5D",
"V	c #717171",
"...........+@#$%&%$#@+...........",
".........*=-;>,')',>;-=*.........",
".......!=~{]]]]]]]]]]]{~=!..*&^..",
"......./,]]]])'','')]]]],/.+(,&..",
"....._:]]]]'<[&$}|1[2']]]]:34(*..",
"...._,]]])5^*6,))','789)]]],3+...",
"...0a]]]]b+.c)]]]]]]]'d|e]]]a0...",
"..![]]]]]fgh]]]]]]]])d+._a]]][!..",
"..$']]]]]]i:]]]]]]]]jk+l]_a]]'$..",
".km]])b']]];:]]]]]]]9!.:l.n)]]mk.",
".o']]p+q)]]];;]]]]]]fr..++st]]'o.",
"!u]]]0.hv]]]]i;]]]]]]wr!kd)x]]]u!",
"*{]]4+c]]v]]]]ii]]]]]]f9j)]l9]]{*",
"y{])z6)]]]<e]]]ij]]]]]]]]]]AB)]{y",
"C']'$']]]]]<a]]]jj]]]]]]]]]'$']'C",
"D]])E]]]]]]]2a]]]jj]]]]]]]]]c)]]D",
"F]]aG]]]]]]]]2f]]]jj]]]]]]]]ye]]F",
"H]]]I]]]]]]]])2f]]]ii]]]]]]]6)]]H",
"J)]'K]]]]]]]]])2f]]]i;]]]]]'6,])J",
"$,])F']]]]]]]]])2a]]]i;]]])6J)],$",
"0A]]L,]]]]]]]]]]]2a]]];:]]c+w]]A0",
"*t]]fE)]]]]]]]]]]]<e]]];:h.*f]]t*",
".C)])/C)]]]]]]]]]]]<]]]]ig.M)])C.",
".+,]]e.C]]]]]]]]]]]]v]]]]fge]],+.",
"..&]]];+C]]]]]]]]]]]]v)]]]]]]]&..",
"..!m]]]4.C)]]]]]]]]]]hq']]]]]m!..",
"...x>]]]i+C)]]]]]]])c.._]]]]>x...",
"....={]]]aFN{)]]]]'6.*Fa]]]{=....",
".....=A]]])iO&IPQRhSs;)]]]A=.....",
"......h:]]]]]']jvj]']]]]]:h......",
".......+TA]]]]]]]]]]]]]AT+.......",
"........+3U<A']]]]]'A<U3+........",
"...........@h%FMVMF%h@..........."};
