/* XPM */
static char * alembic_exporter_xpm[] = {
"33 33 111 2",
"  	c #343434",
". 	c #333333",
"+ 	c #292929",
"@ 	c #2F2F2F",
"# 	c #272727",
"$ 	c #222222",
"% 	c #393939",
"& 	c #424242",
"* 	c #3F3F3F",
"= 	c #444444",
"- 	c #696969",
"; 	c #838383",
"> 	c #939393",
", 	c #969696",
"' 	c #999999",
") 	c #8F8F8F",
"! 	c #7C7C7C",
"~ 	c #626262",
"{ 	c #A2A2A2",
"] 	c #ABABAB",
"^ 	c #A7A7A7",
"/ 	c #9C9C9C",
"( 	c #757575",
"_ 	c #1D1D1D",
": 	c #505050",
"< 	c #ADADAD",
"[ 	c #5C5C5C",
"} 	c #737373",
"| 	c #6D6D6D",
"1 	c #8B8B8B",
"2 	c #585858",
"3 	c #FFFFFF",
"4 	c #CDCDCD",
"5 	c #BEBEBE",
"6 	c #000000",
"7 	c #060606",
"8 	c #2A2A2A",
"9 	c #E4E4E4",
"0 	c #FDFDFD",
"a 	c #B9B9B9",
"b 	c #7A7A7A",
"c 	c #4A4A4A",
"d 	c #ECECEC",
"e 	c #BCBCBC",
"f 	c #9E9E9E",
"g 	c #989898",
"h 	c #EDEDED",
"i 	c #F9F9F9",
"j 	c #A4A4A4",
"k 	c #CECECE",
"l 	c #E2E2E2",
"m 	c #B8B8B8",
"n 	c #FCFCFC",
"o 	c #E9E9E9",
"p 	c #949494",
"q 	c #656565",
"r 	c #E5E5E5",
"s 	c #CCCCCC",
"t 	c #C4C4C4",
"u 	c #9A9A9A",
"v 	c #A6A6A6",
"w 	c #575757",
"x 	c #E8E8E8",
"y 	c #FAFAFA",
"z 	c #D4D4D4",
"A 	c #5D5D5D",
"B 	c #FBFBFB",
"C 	c #D7D7D7",
"D 	c #8C8C8C",
"E 	c #CFCFCF",
"F 	c #C1C1C1",
"G 	c #B4B4B4",
"H 	c #B6B6B6",
"I 	c #B3B3B3",
"J 	c #121212",
"K 	c #4D4D4D",
"L 	c #F6F6F6",
"M 	c #818181",
"N 	c #C7C7C7",
"O 	c #1A1A1A",
"P 	c #0F0F0F",
"Q 	c #878787",
"R 	c #EAEAEA",
"S 	c #F1F1F1",
"T 	c #F8F8F8",
"U 	c #363636",
"V 	c #161616",
"W 	c #D5D5D5",
"X 	c #A5A5A5",
"Y 	c #D3D3D3",
"Z 	c #131313",
"` 	c #BFBFBF",
" .	c #C0C0C0",
"..	c #D1D1D1",
"+.	c #777777",
"@.	c #C3C3C3",
"#.	c #B2B2B2",
"$.	c #4B4B4B",
"%.	c #AEAEAE",
"&.	c #E1E1E1",
"*.	c #4E4E4E",
"=.	c #B1B1B1",
"-.	c #D9D9D9",
";.	c #727272",
">.	c #9B9B9B",
",.	c #B7B7B7",
"'.	c #AAAAAA",
").	c #888888",
"!.	c #606060",
"~.	c #BDBDBD",
"{.	c #B5B5B5",
"                                                                  ",
"                        . . + + + + @   . .                       ",
"                    . # $ + % & & *   + $ + . .                   ",
"                  # $ = - ; > , ' , ) ! ~ * $ #                   ",
"              . $ % ! { ] ^ / ' ' / { ^ ] ' ( * _ .               ",
"            . $ : { < ' > , , , , , , , , / ] { [ $ @             ",
"            $ : ] { > , , , , , , , , , , , > / < } # + %         ",
"          + % / { , , , , , , , , , , , , , ' , ' < } $ @         ",
"        . $ | < , , , , , , , , , , , , , / { ^ / ' < ~ _ . .     ",
"        @ . 1 { , , , , , , , , , , , , { ! & 2 , { / { & #       ",
"        # & 3 3 3 3 3 3 3 3 < , , 4 3 5 ] : 6 7 8 9 0 a b $       ",
"    . . + c 3 d e e e e e e f , , g h i j > - [ f 3 k ' / & +     ",
"    + c *   3 l , , , , , , , , , , ] 0 l ' ] m n o p , ] q $ .   ",
"    . [ * # 3 r , , , , , , , , , , , s 3 t u o n v , , ^ b # .   ",
"  . % w . $ 3 x f f f f f f , , , , / < h y z 3 s , , , / 1   @   ",
"  @ = w @ . 3 3 3 3 3 3 3 y , , ' ] > ~ A B 3 C D ^ , ' / > * +   ",
"  @ c ~ @ @ 3 E u F F G H I { ] { - # J K L 3 M # ! ^ > ' , * +   ",
"  + c } $ . 3 N O : b > ' , ) } & P   Q R 0 S T U   , / / , * +   ",
"  @ = ! # ! 3 N + # # . % %   # V & ] W 3 ^ X 0 Y Z | ] / )   @   ",
". @ . ! ! , 3 `   . $ . % + _ @ . >  .i E J $ ..3 +.2 ] ^ ! + .   ",
"    $ | F ( 3 @.. # [ { < ^ : J : #.9 i $.& [ %.&.L b ] ] - $     ",
"    # *.=.; 3 -.;.>.W ,.) '.H @ : C 3 ).@ : > ( K y l { { = #     ",
"    @ + ) ] 3 3 3 3 3 3 3 3 G : !.0 o = V # # O J %.3 E ! # . .   ",
"      $ *.~.( J = {.- _   @ & * # 1 {.> *.. +   - { / ^ c #   .   ",
"      . $ ( F : # ' ) + @   @ @ # & / {.] ) Q , ^ ' < - $ . .     ",
"        + @ , a : | =.[ V @   .   $ & ; > ' { / ' < ! # @ .       ",
"          # @ , a ) / { ~ @ _ $ # # V V * ; / / < ! # +           ",
"        .   # + ! < { ' ^ ) | w c *.2 - Q , ^ ^ | # +             ",
"              + $ : 1 ^ ] ] < ] { ^ ] =.=.^ Q *.$ @               ",
"                . $ @ *.| Q , ' { / , 1 } : + $                   ",
"                    . $ $ @ * = *.= & . # $ .                     ",
"                . . . . . . + # # + + @ . . .                     ",
"                                                                  "};
