/* XPM */
static char * brent_xpm[] = {
"33 33 174 2",
"  	g #ACACAC",
". 	g #A9A9A9",
"+ 	g #A8A8A8",
"@ 	g #A7A7A7",
"# 	g #A2A2A2",
"$ 	g #A4A4A4",
"% 	g #9D9D9D",
"& 	g #A1A1A1",
"* 	g #9E9E9E",
"= 	g #8B8B8B",
"- 	g #8E8E8E",
"; 	g #6B6B6B",
"> 	g #626262",
", 	g #5A5A5A",
"' 	g #6F6F6F",
") 	g #9F9F9F",
"! 	g #A0A0A0",
"~ 	g #9C9C9C",
"{ 	g #9B9B9B",
"] 	g #ABABAB",
"^ 	g #A5A5A5",
"/ 	g #A3A3A3",
"( 	g #AEAEAE",
"_ 	g #ADADAD",
": 	g #B1B1B1",
"< 	g #BEBEBE",
"[ 	g #C9C9C9",
"} 	g #CBCBCB",
"| 	g #7B7B7B",
"1 	g #8A8A8A",
"2 	g #898989",
"3 	g #949494",
"4 	g #777777",
"5 	g #585858",
"6 	g #4B4B4B",
"7 	g #818181",
"8 	g #8F8F8F",
"9 	g #BCBCBC",
"0 	g #B0B0B0",
"a 	g #AFAFAF",
"b 	g #999999",
"c 	g #959595",
"d 	g #969696",
"e 	g #8D8D8D",
"f 	g #C2C2C2",
"g 	g #B9B9B9",
"h 	g #989898",
"i 	g #919191",
"j 	g #767676",
"k 	g #5C5C5C",
"l 	g #828282",
"m 	g #616161",
"n 	g #404040",
"o 	g #2C2C2C",
"p 	g #1F1F1F",
"q 	g #2B2B2B",
"r 	g #555555",
"s 	g #888888",
"t 	g #484848",
"u 	g #474747",
"v 	g #606060",
"w 	g #575757",
"x 	g #565656",
"y 	g #5B5B5B",
"z 	g #595959",
"A 	g #6C6C6C",
"B 	g #737373",
"C 	g #717171",
"D 	g #5F5F5F",
"E 	g #7A7A7A",
"F 	g #7E7E7E",
"G 	g #797979",
"H 	g #353535",
"I 	g #191919",
"J 	g #252525",
"K 	g #2D2D2D",
"L 	g #171717",
"M 	g #4C4C4C",
"N 	g #707070",
"O 	g #454545",
"P 	g #3E3E3E",
"Q 	g #525252",
"R 	g #6A6A6A",
"S 	g #676767",
"T 	g #696969",
"U 	g #7D7D7D",
"V 	g #7C7C7C",
"W 	g #757575",
"X 	g #787878",
"Y 	g #202020",
"Z 	g #181818",
"` 	g #0A0A0A",
" .	g #212121",
"..	g #363636",
"+.	g #3D3D3D",
"@.	g #373737",
"#.	g #727272",
"$.	g #747474",
"%.	g #868686",
"&.	g #646464",
"*.	g #060606",
"=.	g #1B1B1B",
"-.	g #282828",
";.	g #444444",
">.	g #666666",
",.	g #3B3B3B",
"'.	g #434343",
").	g #333333",
"!.	g #9A9A9A",
"~.	g #878787",
"{.	g #4E4E4E",
"].	g #292929",
"^.	g #636363",
"/.	g #858585",
"(.	g #3F3F3F",
"_.	g #313131",
":.	g #393939",
"<.	g #2F2F2F",
"[.	g #303030",
"}.	g #262626",
"|.	g #1E1E1E",
"1.	g #1D1D1D",
"2.	g #222222",
"3.	g #494949",
"4.	g #323232",
"5.	g #838383",
"6.	g #8C8C8C",
"7.	g #3A3A3A",
"8.	g #1C1C1C",
"9.	g #121212",
"0.	g #343434",
"a.	g #383838",
"b.	g #3C3C3C",
"c.	g #515151",
"d.	g #979797",
"e.	g #AAAAAA",
"f.	g #808080",
"g.	g #272727",
"h.	g #0D0D0D",
"i.	g #242424",
"j.	g #4A4A4A",
"k.	g #A6A6A6",
"l.	g #7F7F7F",
"m.	g #0F0F0F",
"n.	g #424242",
"o.	g #414141",
"p.	g #929292",
"q.	g #848484",
"r.	g #6D6D6D",
"s.	g #4D4D4D",
"t.	g #909090",
"u.	g #656565",
"v.	g #111111",
"w.	g #464646",
"x.	g #545454",
"y.	g #151515",
"z.	g #505050",
"A.	g #B2B2B2",
"B.	g #4F4F4F",
"C.	g #131313",
"D.	g #535353",
"E.	g #2E2E2E",
"F.	g #2A2A2A",
"G.	g #5D5D5D",
"H.	g #232323",
"I.	g #5E5E5E",
"J.	g #6E6E6E",
"K.	g #686868",
"L.	g #141414",
"M.	g #0E0E0E",
"N.	g #F5F5F5",
"O.	g #B6B6B6",
"P.	g #F8F8F8",
"Q.	g #D7D7D7",
"  . + @ # $ % & # & * = - ; > , ' ) ! * ) % ~ ~ { * #   ] @ . + ^ ",
"/ ] ] ( _ : < [ } : | 1 2 3 4 5 6 7 . $ 8 @ 9 0 a _ . ^ * b c d e ",
"f g ] . ! % h i j k j l 8 m n o p q r s | t u v 5 k r 5 w x y k z ",
"; A A ' ' B ' C D E F G H I J K L M N s v O P Q ; ; ; N ' R S T S ",
"U V j 4 G W 4 ; N X k Y Z `  .o ..6 F ' 5 M +.@.N ' C ' N N #.$.$.",
"A #.E j F %.D m &.Q *.=.-.K @.;.&.k >.> n ,.'.).E ) ! * % * ~ !.b ",
") / $ @ $ ~.k >.{.].H M ^.T 4 $./.c #., (._.).).J :.H <.[.K }.J p ",
"|.1. .2.}.x x 3.4.u C 5.6.3 d c h % = C 3.7.8.9.q 0...@.a.b.:.).0.",
"a.H :.@.6 3.c.q O | 8 d.) e.  + ) { 3 f.^.t g.h.8.i.7.b.7.,.a.a.@.",
",.a.+.n j.0._.:.G c & 0 $ @ k.& !.i /.l.S D n |.m.|.4.+.(.n.b.a.:.",
"o.n O n o.q w D h * ! ^ & { 3 p.- q.U $.r.> s.-.L L o ;.'.'.n +.+.",
"n.o.t O H :.x r.!.b h b d.d 3 t.6./.5.$.C u.r 7.1.v.i.O O ;.w.o.(.",
";.'.;.6 (.@.3.E d.d d.b & ^ ~ ) / + c 5.$.T x.M ` y.J s.{.M s.u ;.",
"3.M z.{.;.@.O l.3 b !._ A.@ / * ! 3 = s /.l.x B.Y C.=.B.x.x.Q B.z.",
"z.D.r 5 Q E...e 8 * ^ . ( { t.e l.U Q -.o.D.M z.H I +.5 w x w B.D.",
"x.w r , w 6 F.b d.$ s c.+.3.&.G G.a.K r k {.o.Q B. ...5 x x r D.D.",
"Q x 5 5 w > q d.!.' ^.^.,...;.p.R |.].=.H...O k Q ).:.x r 5 x Q c.",
"c.w z w c.4 B.& 3 $.c.i.g.K n.: 2 <.s.r Q Q >.u.6 a.'.y y z y x.w ",
"z., y , I.J.W * # ~.1 $.I.z.7 . d x.v k {.K.R m ;.}.'.I., v D y , ",
"z k y G.I.' s ~.e.!.i l.5.i % # d K.j X 4 U G S 3.,.y > m v u.> I.",
"k v G.^.m y d.B + # + ! % 8 ~ _ $ G > y V l 4 K.M '.G.u.S S >.&.> ",
"I.> v ^.u.G.h { ! $ ] ) V K._ !.d.K.F B.M ^.&.5 z.M S S T r.r.S &.",
"D K.&.&.&.> /.) 3 - - ' j.J.F ~.A D.).z.w.j.w z.B.T R K.K.R >.T &.",
"m >.^.u.>.u.N ) = s U x.z c 4 z y a...x.M w.;.j.z.T K.K.S u.K.^.^.",
"G.m &.&.K.^.> > 3 $.R >.' s V r.r s.t u J n u.'.6 ; K.R u.R ; >.m ",
"k > v &.^.&.^.u.7 J.j y (.E.> x x G.k }.x z I.z.s.m m &.> ^.K.u., ",
", G.m &.^.I.v m J.F U ; 5./.y s.t ..:.{.x z Q x D u.v G.I.> u.^.G.",
"z.s.{.G.I.&., > R e | j | 2 d 8 5.r.I.B.r x.B.B.(.u z.> r G.B m A ",
"2 d f.| J.#.V | j 2 /.F G %.B G.M j.s.r x.c.c.o.! k.$ <.L.M.7 t.6.",
"J.r.X U B ; | G S 0 /.q.f.2 U u.z z z u.z.6 3.b.C > b M.Z I ' q.s ",
"& . e.@ . d + ! g . = q.5.= 3 e 2 W T >.6 z.j.(.<.' - Q j K.c.' C ",
"a.r b 5.7.'.x.q.N._ i %.l l.t.8 e $.I.B.r s.s.-.2.; i m.y.p =.6.5.",
"n.w.i R ,.7.&.O.P.Q.1 = 5.j B 4 A G.w 5 c.t s.1.+./.b |.6.<.-., r "};
