/* XPM */
static char * checkout_xpm[] = {
"33 33 175 2",
"  	c #3C3C3C",
". 	c #CECECE",
"+ 	c #CFCFCF",
"@ 	c #CDCDCD",
"# 	c #CACACA",
"$ 	c #B9B9B9",
"% 	c #C2C2C2",
"& 	c #C9C9C9",
"* 	c #D0D0D0",
"= 	c #C7C7C7",
"- 	c #C1C1C1",
"; 	c #B1B1B1",
"> 	c #BCBCBC",
", 	c #C0C0C0",
"' 	c #C6C6C6",
") 	c #CCCCCC",
"! 	c #C4C4C4",
"~ 	c #BEBEBE",
"{ 	c #BABABA",
"] 	c #B5B5B5",
"^ 	c #ABABAB",
"/ 	c #9B9B9B",
"( 	c #ADADAD",
"_ 	c #B6B6B6",
": 	c #C8C8C8",
"< 	c #C3C3C3",
"[ 	c #B7B7B7",
"} 	c #AEAEAE",
"| 	c #B4B4B4",
"1 	c #A6A6A6",
"2 	c #929292",
"3 	c #A5A5A5",
"4 	c #989898",
"5 	c #A3A3A3",
"6 	c #ACACAC",
"7 	c #BDBDBD",
"8 	c #AFAFAF",
"9 	c #A9A9A9",
"0 	c #A2A2A2",
"a 	c #8E8E8E",
"b 	c #9A9A9A",
"c 	c #8B8B8B",
"d 	c #999999",
"e 	c #A4A4A4",
"f 	c #ECECEC",
"g 	c #FFFFFF",
"h 	c #BBBBBB",
"i 	c #A8A8A8",
"j 	c #A0A0A0",
"k 	c #979797",
"l 	c #9C9C9C",
"m 	c #9D9D9D",
"n 	c #969696",
"o 	c #838383",
"p 	c #919191",
"q 	c #BFBFBF",
"r 	c #EBEBEB",
"s 	c #898989",
"t 	c #8F8F8F",
"u 	c #7D7D7D",
"v 	c #868686",
"w 	c #959595",
"x 	c #AAAAAA",
"y 	c #B3B3B3",
"z 	c #CBCBCB",
"A 	c #EDEDED",
"B 	c #8C8C8C",
"C 	c #7C7C7C",
"D 	c #7F7F7F",
"E 	c #B8B8B8",
"F 	c #D5D5D5",
"G 	c #EFEFEF",
"H 	c #D1D1D1",
"I 	c #767676",
"J 	c #909090",
"K 	c #757575",
"L 	c #818181",
"M 	c #B0B0B0",
"N 	c #D4D4D4",
"O 	c #DEDEDE",
"P 	c #F1F1F1",
"Q 	c #D8D8D8",
"R 	c #D9D9D9",
"S 	c #777777",
"T 	c #DADADA",
"U 	c #E5E5E5",
"V 	c #F3F3F3",
"W 	c #DFDFDF",
"X 	c #D2D2D2",
"Y 	c #848484",
"Z 	c #787878",
"` 	c #747474",
" .	c #808080",
"..	c #DCDCDC",
"+.	c #E8E8E8",
"@.	c #F4F4F4",
"#.	c #E1E1E1",
"$.	c #E2E2E2",
"%.	c #828282",
"&.	c #6E6E6E",
"*.	c #6D6D6D",
"=.	c #878787",
"-.	c #A1A1A1",
";.	c #6B6B6B",
">.	c #737373",
",.	c #7A7A7A",
"'.	c #DDDDDD",
").	c #DBDBDB",
"!.	c #888888",
"~.	c #696969",
"{.	c #707070",
"].	c #D6D6D6",
"^.	c #F0F0F0",
"/.	c #A7A7A7",
"(.	c #7B7B7B",
"_.	c #656565",
":.	c #F7F7F7",
"<.	c #616161",
"[.	c #686868",
"}.	c #7E7E7E",
"|.	c #E9E9E9",
"1.	c #FEFEFE",
"2.	c #F6F6F6",
"3.	c #6C6C6C",
"4.	c #5A5A5A",
"5.	c #636363",
"6.	c #797979",
"7.	c #F9F9F9",
"8.	c #6F6F6F",
"9.	c #676767",
"0.	c #606060",
"a.	c #545454",
"b.	c #5C5C5C",
"c.	c #646464",
"d.	c #717171",
"e.	c #E0E0E0",
"f.	c #626262",
"g.	c #595959",
"h.	c #5D5D5D",
"i.	c #666666",
"j.	c #525252",
"k.	c #4C4C4C",
"l.	c #555555",
"m.	c #5E5E5E",
"n.	c #E7E7E7",
"o.	c #6A6A6A",
"p.	c #4F4F4F",
"q.	c #565656",
"r.	c #E4E4E4",
"s.	c #494949",
"t.	c #454545",
"u.	c #505050",
"v.	c #727272",
"w.	c #4B4B4B",
"x.	c #474747",
"y.	c #5B5B5B",
"z.	c #5F5F5F",
"A.	c #4E4E4E",
"B.	c #575757",
"C.	c #D7D7D7",
"D.	c #515151",
"E.	c #2D2D2D",
"F.	c #444444",
"G.	c #4A4A4A",
"H.	c #1C1C1C",
"I.	c #313131",
"J.	c #484848",
"K.	c #4D4D4D",
"L.	c #383838",
"M.	c #252525",
"N.	c #3A3A3A",
"O.	c #414141",
"P.	c #424242",
"Q.	c #404040",
"R.	c #2A2A2A",
"                                                                  ",
"                                                                  ",
"                              . + @ #                             ",
"                      $ % & . * * * @ = - $                       ",
"                    ; > > , ' # ) # ! ~ { { ] ^                   ",
"                / ^ ^ ( _ ~ ! : & : < ~ [ } ( | 1                 ",
"              2 3 4 5 6 | > % = & : % 7 _ 8 9 0 6 5               ",
"            a b c d e 6 | > , f g g h 7 _ 8 i j k l m             ",
"            n o p l 1 8 [ q ! r g g ~ - { ; 9 j n s k             ",
"          t u v w j x y 7 ' z A g g ' : , _ ( 0 4 B C d           ",
"          s D B 4 5 ( E < @ F G g g + H = > ; 1 b t D I           ",
"        J K L a d e M > : N O P g g Q R @ - | i l p o I p         ",
"        s S L a d e ; ~ ) T U V g g W W X ! _ 9 l 2 Y S Z         ",
"        ` I  .c 4 e ; ~ @ ..+.@.g g #.$.N ! _ i l J %.S &.        ",
"        *.` u =.n -.} > ) T +.@.g g #.#.X < y 1 b a  .S &.        ",
"        ;.>.,.o p l x [ ' N $.V g g '.).) ~ 8 j n !.u I *.        ",
"        ~.{.S  .s 1 x M ~ z ].^.g g X H ! _ /...J o (.>.;.        ",
"        _.*.` C Y / g } y q = A g g < ! E ^ $.:.=.D S {.~.        ",
"        <.[.{.Z }.n g g M ; E |.g g | ] x $.1.2.%.(.>.3._.        ",
"        4.5.;.>.6.2 g 1.g x 1 U g g e 3 $.1.g 7.u I 8.9.0.        ",
"        a.b.c.*.` d.|.g 1.g j e.g g p $.1.1.1.v I d.~.f.g.        ",
"          a.h.i.&.>.~.+.g 1.g |.g g '.1.1.1.L K {.;.c.b.j.        ",
"          k.l.m.i.3.d.[.n.g g g g g g g 1.C >.8.o.c.b.a.          ",
"            p.q.m._.o.8._.r.g g g g g g I d.3.[.5.h.a.s.          ",
"            t.u.q.h.5.9.o.<.e.g 1.g g v.3.[._.f.b.l.w.            ",
"              x.u.l.y.z.f._.m.T 1.g *.i.c.<.m.4.a.w.              ",
"                x.A.j.B.4.h.z.g.C.[.z.m.b.4.q.D.s.E.              ",
"                  F.G.A.D.a.l.B.l.B.q.l.j.p.w.F.H.                ",
"                    I.F.J.G.w.k.K.K.k.G.J.F.L.                    ",
"                        M.N.O.P.P.O.Q.  R.                        ",
"                                                                  ",
"                                                                  ",
"                                                                  "};
