/* XPM */
static char * frame_range_xpm[] = {
"32 32 43 1",
" 	c None",
".	c #343434",
"+	c #494949",
"@	c #707070",
"#	c #737373",
"$	c #525252",
"%	c #969696",
"&	c #8D8D8D",
"*	c #636363",
"=	c #656565",
"-	c #646464",
";	c #878787",
">	c #6E6E6E",
",	c #959595",
"'	c #7F7F7F",
")	c #717171",
"!	c #404040",
"~	c #8E8E8E",
"{	c #919191",
"]	c #8C8C8C",
"^	c #7A7A7A",
"/	c #6C6C6C",
"(	c #424242",
"_	c #333333",
":	c #353535",
"<	c #3E3E3E",
"[	c #5D5D5D",
"}	c #4D4D4D",
"|	c #464646",
"1	c #868686",
"2	c #4C4C4C",
"3	c #373737",
"4	c #3A3A3A",
"5	c #696969",
"6	c #747474",
"7	c #777777",
"8	c #383838",
"9	c #7B7B7B",
"0	c #838383",
"a	c #686868",
"b	c #787878",
"c	c #5E5E5E",
"d	c #575757",
"................................",
"................................",
"................................",
"...+@######################@+...",
"..$%%%&*=-;%%%>==>%%%;-=*&%%%$..",
"..;%%,'...)%%%!..!%%%)...'%%%;..",
"..~%%,{)#)]%%%^##^%%%])#){%%%~..",
"..~%/*=====================/%~..",
"..~%(_.....................(%~..",
"..~%(...............:......(%~..",
"..~%(..............<[}.....(%~..",
"..~%(.............(;%&|....(%~..",
"..~%(............(1%%]2....(%~..",
"..~%(....343....(1%%{5.....(%~..",
"..~%(...:6%#3..(1%%{5......(%~..",
"..~%(...4%%%78(1%%{5.......(%~..",
"..~%(...:7,%%90%%{5........(%~..",
"..~%(....3^,%%%%{a.........(%~..",
"..~%(.....3^,%%{5..........(%~..",
"..~%(......3b{~5...........(%~..",
"..~%(.......:cd............(%~..",
"..~%(......................(%~..",
"..~%(......................(%~..",
"..~%(......................(%~..",
"..~%/======================/%~..",
"..~%%%{)#)]%%%^##^%%%])#){%%%~..",
"..;%%%'...)%%%!..!%%%)...'%%%;..",
"..$%%%&*=-;%%%>==>%%%;-=*&%%%$..",
"...+@######################@+...",
"................................",
"................................",
"................................"};
