/* XPM */
static char * gnome_xpm[] = {
"33 33 17 1",
" 	c #2E2E2E",
".	c #494949",
"+	c #262626",
"@	c #393939",
"#	c #5C5C5C",
"$	c #585858",
"%	c #454545",
"&	c #353535",
"*	c #3D3D3D",
"=	c #2A2A2A",
"-	c #545454",
";	c #4D4D4D",
">	c #414141",
",	c #515151",
"'	c #323232",
")	c #606060",
"!	c #222222",
"*''''''''''''''''''''''''''''''''",
"'!!!!!!!!!!!!!!!@!!!!!!!!!!!!!!!!",
"'!!!!!!!!!!!!!!=)=!!!!!!!!!!!!!!!",
"'!!!!!!!!!!!!!!>)>!!!!!!!!!!!!!!!",
"'!!!!!!!!!!!!!!$)$!!!!!!!!!!!!!!!",
"'!!!!!!!!!!!!!&)))&!!!!!!!!!!!!!!",
"'!!!!!!!!!!!!!.))).!!!!!!!!!!!!!!",
"'!!!!!!!!!!!!+)))))+!!!!!!!!!!!!!",
"'!!!!!!!!!!!!*)))))*!!!!!!!!!!!!!",
"'!!!!!!!!!!!!-)))))-!!!!!!!!!!!!!",
"'!!!!!!!!!!! ))))))) !!!!!!!!!!!!",
"'!!!!!!!!!!!.))))))).!!!!!!!!!!!!",
"'!!!!!!!!!!!*>>>>>>>*!!!!!!!!!!!!",
"'!!!!!!!!!!! ,,,,,,, !!!!!!!!!!!!",
"'!!!!!!!!!!>)#,,,,,#)>!!!!!!!!!!!",
"'!!!!!!!!!!>),>& &&,)>!!!!!!!!!!!",
"'!!!!!!!!!!!', ;,.=,'!!!!!!!!!!!!",
"'!!!!!!!!!! -))),)))- !!!!!!!!!!!",
"'!!!!!!!!!=%>)))))))>%=!!!!!!!!!!",
"'!!!!!!!!!%+>)))))))>+%!!!!!!!!!!",
"'!!!!!!!!!.!@)))))))@!.!!!!!!!!!!",
"'!!!!!!!!!>@!%)))))%!@>!!!!!!!!!!",
"'!!!!!!!!!>>! ))))) !>>!!!!!!!!!!",
"'!!!!!!!!!,.!!,))),!!.,!!!!!!!!!!",
"'!!!!!!!!!,$,,,))),,,$,!!!!!!!!!!",
"'!!!!!!!!!@)))))))))))@!!!!!!!!!!",
"'!!!!!!!!!+#)))))))))#+!!!!!!!!!!",
"'!!!!!!!!!!>)))))))))>!!!!!!!!!!!",
"'!!!!!!!!!!+#)))))))#+!!!!!!!!!!!",
"'!!!!!!!!!!$)))))))))$!!!!!!!!!!!",
"'!!!!!!!!!!)))))))))))!!!!!!!!!!!",
"'!!!!!!!!!!!!!!!!!!!!!!!!!!!!!!!!",
"'!!!!!!!!!!!!!!!!!!!!!!!!!!!!!!!!"};
