/* XPM */
static char * jampa_robe_setup_xpm[] = {
"32 32 97 2",
"  	c None",
". 	c #343434",
"+ 	c #333333",
"@ 	c #363636",
"# 	c #343333",
"$ 	c #3D3D3D",
"% 	c #3B3B3B",
"& 	c #40403C",
"* 	c #777776",
"= 	c #3F3D30",
"- 	c #413F30",
"; 	c #787878",
"> 	c #777777",
", 	c #41413A",
"' 	c #393939",
") 	c #323232",
"! 	c #444444",
"~ 	c #7C7C7C",
"{ 	c #7D7D7D",
"] 	c #989898",
"^ 	c #999999",
"/ 	c #7F7F80",
"( 	c #999998",
"_ 	c #989897",
": 	c #7E7E7E",
"< 	c #424242",
"[ 	c #313131",
"} 	c #2E2E2D",
"| 	c #494949",
"1 	c #838383",
"2 	c #969696",
"3 	c #818181",
"4 	c #4E4E4E",
"5 	c #303030",
"6 	c #4F4F4F",
"7 	c #494948",
"8 	c #575757",
"9 	c #72726C",
"0 	c #898989",
"a 	c #878787",
"b 	c #6F6F6E",
"c 	c #888888",
"d 	c #8A8A8A",
"e 	c #888887",
"f 	c #595959",
"g 	c #626262",
"h 	c #8D8D8D",
"i 	c #979797",
"j 	c #FFFFFF",
"k 	c #8E8E8D",
"l 	c #616161",
"m 	c #2D2D2D",
"n 	c #6C6C6C",
"o 	c #939393",
"p 	c #727271",
"q 	c #737373",
"r 	c #686868",
"s 	c #6A6A6A",
"t 	c #707070",
"u 	c #717171",
"v 	c #727270",
"w 	c #5C5B57",
"x 	c #4A4A49",
"y 	c #828282",
"z 	c #828281",
"A 	c #5D5D59",
"B 	c #4B4B4B",
"C 	c #7F7F7F",
"D 	c #4C4C4C",
"E 	c #989899",
"F 	c #2F2F2D",
"G 	c #727272",
"H 	c #7A7A7A",
"I 	c #464646",
"J 	c #535247",
"K 	c #383839",
"L 	c #353534",
"M 	c #3C3C3C",
"N 	c #323231",
"O 	c #383838",
"P 	c #9A9A9A",
"Q 	c #F9F9F9",
"R 	c #ACACAC",
"S 	c #EDEDED",
"T 	c #A6A6A6",
"U 	c #E7E7E7",
"V 	c #D3D3D3",
"W 	c #A4A4A4",
"X 	c #2F2F2F",
"Y 	c #F7F7F7",
"Z 	c #E0E0E0",
"` 	c #AAAAAA",
" .	c #30302F",
"..	c #31312E",
"+.	c #31312D",
"@.	c #373733",
"#.	c #2F2F2E",
". . . . . . . . . . . . . . . . . . . . . . . . . . . . . . . . ",
". . . . . . . . + @ @ + . . . . . . . . # @ @ + . . . . . . . . ",
". . . . . . $ % & * * = . . . . . . . . - ; > , ' $ + . . . . . ",
". . . . ) ! ~ { ] ^ ^ / ! . . . . . . ! / ^ ( _ : ~ < [ . . . . ",
". . . } | 1 ] ] 2 2 2 ] 3 4 5 . . 5 6 1 ] 2 2 2 ] ] 1 7 6 . . . ",
". . 8 9 0 ] 2 2 2 2 2 2 ] a b 8 8 b c ] 2 2 2 2 2 2 ] d e f + . ",
"[ g h i i 2 2 2 2 2 2 2 2 i i j j i i 2 2 2 2 2 2 2 2 i i k l m ",
"n o 2 2 2 2 2 2 2 2 2 2 2 2 2 j j 2 2 2 2 2 2 2 2 2 2 2 2 2 o n ",
"p 2 2 2 2 2 2 2 2 2 2 2 2 2 2 j j 2 2 2 2 2 2 2 2 2 2 2 2 2 2 q ",
"r o 2 2 2 2 2 2 2 2 2 2 2 2 2 j j 2 2 2 2 2 2 2 2 2 2 2 2 2 o s ",
") t 2 2 2 2 2 i 2 2 2 2 2 2 2 j j 2 2 2 2 2 2 2 i i i 2 2 2 u + ",
". v ] 2 2 ] ] c ] 2 2 2 2 2 2 j j 2 2 2 2 2 2 ] c 0 a 2 2 ] w . ",
". x y ] ^ z A B 1 2 2 2 2 2 2 j j 2 2 2 2 2 2 C D | t E ] 1 F . ",
". . G : H < 5 ) G 2 2 2 2 2 2 j j 2 2 2 2 2 2 t ) ) I J : u + . ",
". . K L M . . ) q 2 2 2 2 2 2 j j 2 2 2 2 2 2 q [ . . N O ' . . ",
". . + + . . . ) q 2 2 2 2 2 2 j j 2 2 2 2 2 2 q [ . . . + . . . ",
". . . . . . . + q 2 2 2 2 2 2 j j 2 2 2 2 2 2 q [ . . . . . . . ",
". . . . . . . + q 2 2 2 2 2 2 j j 2 2 2 2 2 2 q ) . . . . . . . ",
". . . . . . . + q 2 2 2 2 2 2 j j 2 2 2 2 2 2 q ) . . . . . . . ",
". . . . . . . + q 2 2 2 2 2 2 j j 2 2 2 2 2 2 q [ . . . . . . . ",
". . . . . . . . q 2 2 2 2 2 P j Q 2 2 2 2 2 2 q [ . . . . . . . ",
". . . . . . . . q 2 2 2 2 2 R j S 2 2 2 2 2 2 u [ . . . . . . . ",
". . . . . . . . q 2 2 2 2 T U j V 2 2 2 2 2 2 q 5 . . . . . . . ",
". . . . . . . . q 2 2 2 j j j Q W 2 2 2 2 2 2 u X . . . . . . . ",
". . . . . . . . q 2 2 2 j Y Z ` 2 2 2 2 2 2 2 ] 5 . . . . . . . ",
". . . . . . . . u 2 2 2 2 2 2 2 2 2 2 2 2 2 2 2  .. . . . . . . ",
". . . . . . . . u 2 2 2 2 2 2 2 2 2 2 2 2 2 2 2 ... . . . . . . ",
". . . . . . . . u 2 2 2 2 2 2 2 2 2 2 2 2 2 2 2 ... . . . . . . ",
". . . . . . . . q ^ ^ ^ ^ ^ ^ ^ ^ ^ ^ ^ ^ ^ ^ ^ +.. . . . . . . ",
". . . . . . . . @.> > ; ; ; ; ; ; ; ; ; ; ; ; > #.. . . . . . . ",
". . . . . . . . + @ @ @ @ @ @ @ @ @ @ @ @ @ @ @ + . . . . . . . ",
". . . . . . . . . . . . . . . . . . . . . . . . . . . . . . . . "};
