/* XPM */
static char * jampa_preroll_xpm[] = {
"32 32 138 2",
"  	c None",
". 	c #343434",
"+ 	c #383838",
"@ 	c #545454",
"# 	c #5D5D5D",
"$ 	c #5B5B5B",
"% 	c #5A5A5A",
"& 	c #585858",
"* 	c #4F4F4F",
"= 	c #2D2D2D",
"- 	c #262626",
"; 	c #404040",
"> 	c #7D7D7D",
", 	c #8B8B8B",
"' 	c #6E6E6E",
") 	c #838383",
"! 	c #878787",
"~ 	c #8A8A8A",
"{ 	c #9F9F9F",
"] 	c #6D6D6D",
"^ 	c #3B3B3B",
"/ 	c #484848",
"( 	c #9D9D9D",
"_ 	c #9B9B9B",
": 	c #6C6C6C",
"< 	c #2C2C2C",
"[ 	c #696969",
"} 	c #676767",
"| 	c #969696",
"1 	c #313131",
"2 	c #333333",
"3 	c #979797",
"4 	c #959595",
"5 	c #4C4C4C",
"6 	c #595959",
"7 	c #7C7C7C",
"8 	c #414141",
"9 	c #818181",
"0 	c #8C8C8C",
"a 	c #FFFFFF",
"b 	c #9E9E9E",
"c 	c #9A9A9A",
"d 	c #8F8F8F",
"e 	c #5E5E5E",
"f 	c #A6A6A6",
"g 	c #353535",
"h 	c #282828",
"i 	c #A9A9A9",
"j 	c #A0A0A0",
"k 	c #999999",
"l 	c #767676",
"m 	c #2A2A2A",
"n 	c #A1A1A1",
"o 	c #494949",
"p 	c #444444",
"q 	c #707070",
"r 	c #292929",
"s 	c #C2C2C2",
"t 	c #737373",
"u 	c #898989",
"v 	c #686868",
"w 	c #797979",
"x 	c #272727",
"y 	c #9C9C9C",
"z 	c #646464",
"A 	c #363636",
"B 	c #2B2B2B",
"C 	c #989898",
"D 	c #8D8D8D",
"E 	c #A3A3A3",
"F 	c #323232",
"G 	c #3F3F3F",
"H 	c #515151",
"I 	c #3A3A3A",
"J 	c #565656",
"K 	c #868686",
"L 	c #939393",
"M 	c #888888",
"N 	c #373737",
"O 	c #626262",
"P 	c #525252",
"Q 	c #4E4E4E",
"R 	c #7A7A7A",
"S 	c #757575",
"T 	c #606060",
"U 	c #434343",
"V 	c #464646",
"W 	c #393939",
"X 	c #7B7B7B",
"Y 	c #A2A2A2",
"Z 	c #7F7F7F",
"` 	c #747474",
" .	c #6A6A6A",
"..	c #666666",
"+.	c #474747",
"@.	c #242424",
"#.	c #3D3D3D",
"$.	c #858585",
"%.	c #727272",
"&.	c #555555",
"*.	c #505050",
"=.	c #929292",
"-.	c #5F5F5F",
";.	c #656565",
">.	c #2F2F2F",
",.	c #4A4A4A",
"'.	c #8E8E8E",
").	c #909090",
"!.	c #919191",
"~.	c #535353",
"{.	c #636363",
"].	c #7E7E7E",
"^.	c #424242",
"/.	c #4B4B4B",
"(.	c #3C3C3C",
"_.	c #616161",
":.	c #303030",
"<.	c #FCFCFC",
"[.	c #2E2E2E",
"}.	c #6F6F6F",
"|.	c #F2F2F2",
"1.	c #949494",
"2.	c #ABABAB",
"3.	c #E0E0E0",
"4.	c #777777",
"5.	c #ADADAD",
"6.	c #A5A5A5",
"7.	c #252525",
"8.	c #E5E5E5",
"9.	c #D2D2D2",
"0.	c #848484",
"a.	c #222222",
"b.	c #F4F4F4",
"c.	c #232323",
"d.	c #F1F1F1",
"e.	c #C3C3C3",
"f.	c #808080",
"g.	c #5C5C5C",
". . . . . . . . . . . . . . . . . . . . . . . . . . . . . . . . ",
". . . . . . . . . . . . . . . . . . . . . . . . . . . . . . . . ",
". . . . . . . . . . . . + @ # $ % & * = . . . . . . . . . . . . ",
". . . . . . . . . . - ; > , ' ) ! ~ { ] ^ . . . . . . . . . . . ",
". . . . . . . . . . / ( _ : < / [ } | _ { 1 . . . . . . . . . . ",
". . . . . . . . . 2 3 | 4 3 2 5 | 3 | | | 6 . . . . . . . . . . ",
". . . . . . . . . 7 3 ( 8 3 9 0 a a b c | d . . . . . . . . . . ",
". . . . . . . . e f | g h | i j a a g } | k l m . . . . . . . . ",
". . . . . . . g n o ( 1 . 4 p q a a . r | 4 s ] . . . . . . . . ",
". . . . . . . t u . v w . k . x a a . = | y z j A B . . . . . . ",
". . . . . 1 2 C @ 1 2 D 3 E 2 2 a a F G | k 2 ( c H F 1 . . . . ",
". . . . . 5 ~ | I g r 2 J 3 ! K a a K L _ 2 x 3 j C M N . . . . ",
". . . . O L P | Q ! R # D k S J a a T H H O d _ v z % M U . . . ",
". . . V u G W | X ' _ Y / Z > [ a a `  . .Z Q ..` +.@.+.D 2 . . ",
". . F Y #.=  .| y r | $.. S C D a a z %.~ } . &.b *.. . v R m . ",
". . q ) F O M | =.. | -.2 C =.;.a a 2 >.,.'.F 4 ).& . . . !.p . ",
". . =.2 W | 2 C : . 3 | & k | 3 a a ^ &.#.=.#.&.G ,.. . . ;.=.. ",
". A 3 . $.~.. ..'.. &.$ , J | g a a -.1 B {.].* ^./.. . . U C . ",
". ; | . n . . >.Y ,.= - k (.| . a a F . . . M V ` V . . . + | . ",
". N C . > /.. . % f W 1 | _.| . a a . . . . *.O y >.. . . o C . ",
". . ( 2 2 v :.:.. X =.j C _ | . a <.. . [.:.. b X . . . . }.0 . ",
". . 3 =.. (.Q [.. 2 (.C C | | G a |.. . I =.1.1.2 . . . . 4 *.. ",
". . g 2...>.:.F [.. < >.:.y y 4 a 3.q 4.'.5.T :.. . . . l ( >.. ",
". . . {.6./.7.- x . . . . W 7 8.a 9.f 0.z (.m . . . :.% f ^ . . ",
". . . a.J f # . x . . . . a a a b.;.Q N c.. . . m W w ~ *.. . . ",
". . . . . %.> Y ,.>.[.= . a d.e.& . . . . = >.1 ..k 4.8 . . . . ",
". . . . . . . =.1.3 w U 2 2 2 2 2 2 2 2 1 J 3 | L _.. . . . . . ",
". . . . . . . >.F T L 4 M f.].> > > Z , { C n Q :.[.. . . . . . ",
". . . . . . . . . m F A (.g.v q %.}.;.* #.. 2 h . . . . . . . . ",
". . . . . . . . . . . . . a.h < = B - B . . . . . . . . . . . . ",
". . . . . . . . . . . . . . . . . . . . . . . . . . . . . . . . ",
". . . . . . . . . . . . . . . . . . . . . . . . . . . . . . . . "};
