/* XPM */
static char * new_xpm[] = {
"32 32 33 1",
" 	c None",
".	c #343434",
"+	c #3C3C3C",
"@	c #535353",
"#	c #646464",
"$	c #6C6C6C",
"%	c #5E5E5E",
"&	c #8B8B8B",
"*	c #969696",
"=	c #5A5A5A",
"-	c #929292",
";	c #919191",
">	c #727272",
",	c #676767",
"'	c #636363",
")	c #7E7E7E",
"!	c #949494",
"~	c #6F6F6F",
"{	c #3E3E3E",
"]	c #363636",
"^	c #868686",
"/	c #353535",
"(	c #333333",
"_	c #959595",
":	c #525252",
"<	c #696969",
"[	c #404040",
"}	c #585858",
"|	c #5B5B5B",
"1	c #323232",
"2	c #686868",
"3	c #3B3B3B",
"4	c #373737",
"................................",
"............+@#$$$#@+...........",
"..........%&*********&%.........",
"........=-***;>,',>;***-=.......",
".......)**!~{.......{~!**)......",
".....]^**~/...(..(..../~**^]....",
".....^_*:....(+<<+(.....:*_^....",
"....)**[.....]!**!]......[**)...",
"...=**:......}****}.......:**=..",
"...-*~.......|****|........~*-..",
"..%*!/.......|****|......../!*%.",
"..&*~........|****|.........~*&.",
".+**{........|****|.........{**+",
".@*;..1.}||||>****>||||}/(...;*@",
".#*>.(+!****************_+(..>*#",
".$*,..2******************2...,*$",
".$*'..<******************<...'*$",
".$*,.(3!****************!+(..,*$",
".#*>..(4}||||>****>||||}.(...>*#",
".@*;.........|****|..........;*@",
".+**{........|****|.........{**+",
"..&*~........|****|.........~*&.",
"..%*!/.......|****|......../!*%.",
"...-*~.......}****}........~*-..",
"...=**:....../!**!/.......:**=..",
"....)**[.....(+2<+(......[**)...",
".....^_*:.....(..(......:*_^....",
".....]^**~/.........../~**^]....",
".......)**!~{.......{~!**)......",
"........=-***;>,',>;***-=.......",
"..........%&*********&%.........",
"............+@#$$$#@+..........."};
