/* XPM */
static char * playblast_xpm[] = {
"32 32 25 1",
" 	c None",
".	c #343434",
"+	c #494949",
"@	c #707070",
"#	c #737373",
"$	c #525252",
"%	c #969696",
"&	c #8D8D8D",
"*	c #636363",
"=	c #656565",
"-	c #646464",
";	c #878787",
">	c #6E6E6E",
",	c #959595",
"'	c #7F7F7F",
")	c #717171",
"!	c #404040",
"~	c #8E8E8E",
"{	c #919191",
"]	c #8C8C8C",
"^	c #7A7A7A",
"/	c #6C6C6C",
"(	c #424242",
"_	c #333333",
":	c #353535",
"................................",
"................................",
"................................",
"...+@######################@+...",
"..$%%%&*=-;%%%>==>%%%;-=*&%%%$..",
"..;%%,'...)%%%!..!%%%)...'%%%;..",
"..~%%,{)#)]%%%^##^%%%])#){%%%~..",
"..~%/*=====================/%~..",
"..~%(_.....................(%~..",
"..~%(................:.....(%~..",
"..~%(.....$;;$.............(%~..",
"..~%(.....$;%%;$...........(%~..",
"..~%(.....$;%%%%;$.........(%~..",
"..~%(.....$;%%%%%%;$.......(%~..",
"..~%(....:$;%%%%%%%%;$.....(%~..",
"..~%(.....$;%%%%%%%%%%;....(%~..",
"..~%(....:$;%%%%%%%%%%;....(%~..",
"..~%(.....$;%%%%%%%%;$.....(%~..",
"..~%(.....$;%%%%%%;$.......(%~..",
"..~%(.....$;%%%%;$.........(%~..",
"..~%(.....$;%%;$...........(%~..",
"..~%(.....$;;$.............(%~..",
"..~%(......................(%~..",
"..~%(......................(%~..",
"..~%/======================/%~..",
"..~%%%{)#)]%%%^##^%%%])#){%%%~..",
"..;%%%'...)%%%!..!%%%)...'%%%;..",
"..$%%%&*=-;%%%>==>%%%;-=*&%%%$..",
"...+@######################@+...",
"................................",
"................................",
"................................"};
