/* XPM */
static char * reference_xpm[] = {
"32 32 50 1",
" 	c None",
".	c #343434",
"+	c #737373",
"@	c #969696",
"#	c #8A8A8A",
"$	c #4A4A4A",
"%	c #7C7C7C",
"&	c #414141",
"*	c #3D3D3D",
"=	c #707070",
"-	c #424242",
";	c #959595",
">	c #939393",
",	c #858585",
"'	c #5F5F5F",
")	c #838383",
"!	c #757575",
"~	c #767676",
"{	c #7F7F7F",
"]	c #444444",
"^	c #909090",
"/	c #505050",
"(	c #8E8E8E",
"_	c #4B4B4B",
":	c #535353",
"<	c #878787",
"[	c #545454",
"}	c #696969",
"|	c #8C8C8C",
"1	c #3F3F3F",
"2	c #555555",
"3	c #808080",
"4	c #4C4C4C",
"5	c #646464",
"6	c #595959",
"7	c #777777",
"8	c #383838",
"9	c #6E6E6E",
"0	c #6D6D6D",
"a	c #979797",
"b	c #919191",
"c	c #3A3A3A",
"d	c #3B3B3B",
"e	c #5E5E5E",
"f	c #585858",
"g	c #393939",
"h	c #333333",
"i	c #8B8B8B",
"j	c #6A6A6A",
"k	c #7A7A7A",
"................................",
"................................",
"....+@@@@@@@#$..................",
"...%@@@@@@@@@@&.................",
"..*@@@@@@@@@@@=.................",
"..-@@@@@@@@@@@;>>>>>>>>>>>,'....",
"..-@@@@@@@@@@@@@@@@@@@@@@@@@%...",
"..-@@)!~~~~~~~~~~~~~~~~~~!{@@]..",
"..-@@......................^@/..",
"..-@@......................(@/..",
"..-@@......................(@/..",
"..-@@......................(@/..",
"..-@@......................(@/..",
"..-@@......................(@/..",
"..-@@......................(@/..",
"..-@@......................(@/..",
"..-@@.................._:..<@/..",
"..-@@.................[@@}..|/..",
"..-@@................[@@@@@.1/..",
"..-@@...............2@@@@@@}.1..",
"..-@@..............[@@@@@@@@3...",
"..-@@.............[@@@@@@@@@@%..",
"..-@@............4@@@@@@@@@@@@5.",
"..-@@............6@@@@@@@@@@@@7.",
"..8@@+6900000000.0a@@@@@@@@@@bc.",
"...0@@@@@@@@@@@@1.@|@@@@@@@@@d..",
"....e,(;;;;;;;;;;1.f)@@@@@@bc...",
".....................^@@@@@g....",
".....................hi@@^d.....",
".......................jkg......",
"................................",
"................................"};
