/* XPM */
static char * rollback_xpm[] = {
"32 32 18 1",
" 	c #343434",
".	c #555555",
"+	c #969696",
"@	c #8D8D8D",
"#	c #909090",
"$	c #353535",
"%	c #8A8A8A",
"&	c #4F4F4F",
"*	c #777777",
"=	c #8E8E8E",
"-	c #505050",
";	c #616161",
">	c #5A5A5A",
",	c #8F8F8F",
"'	c #515151",
")	c #8C8C8C",
"!	c #4A4A4A",
"~	c #959595",
"                                ",
"                                ",
"                                ",
"             .+++++++           ",
"           .++++++++++@         ",
"         .++++@    ..+++@       ",
"        .+++@        ..++@      ",
"       .++@            .++@     ",
"      .++@              .++@    ",
"      ++@                .++    ",
"     .++                  ++@   ",
"     +++                  .++   ",
"    .++                    ++@  ",
"    .+#  $                 .+@  ",
" +%$.+# &+*                 +@  ",
" ++=.+#-++@                 +@  ",
" ;+++++++#                  +@  ",
"  >+++++,                   +@  ",
"   '+++)                   .+@  ",
"    !~%                    ++@  ",
"                          .++   ",
"      .@                  ++@   ",
"      .+@                .++    ",
"      .*+@              .++@    ",
"       .++@            .+++     ",
"        .+++@        .++++      ",
"         .++++@    .++++@       ",
"           .++++++++++@         ",
"             .+++++++           ",
"                                ",
"                                ",
"                                "};
