/* XPM */
static char * temp_xpm[] = {
"32 32 163 2",
"  	c #9E9E9E",
". 	c #9C9B9B",
"+ 	c #9C9C9C",
"@ 	c #9D9D9D",
"# 	c #9E9D9D",
"$ 	c #9F9F9F",
"% 	c #A0A0A0",
"& 	c #A1A1A1",
"* 	c #A2A2A2",
"= 	c #A3A2A2",
"- 	c #A3A3A3",
"; 	c #A4A4A4",
"> 	c #A5A5A5",
", 	c #A6A6A6",
"' 	c #898989",
") 	c #9B9B9B",
"! 	c #E0E0E0",
"~ 	c #E1E1E1",
"{ 	c #E2E1E1",
"] 	c #E2E2E2",
"^ 	c #E3E3E3",
"/ 	c #E4E3E3",
"( 	c #E4E4E4",
"_ 	c #E5E5E5",
": 	c #E6E6E6",
"< 	c #E7E7E7",
"[ 	c #E8E8E8",
"} 	c #E9E9E9",
"| 	c #EAEAEA",
"1 	c #838383",
"2 	c #9B9A9A",
"3 	c #D4D4D4",
"4 	c #808080",
"5 	c #9A9A9A",
"6 	c #DFDFDF",
"7 	c #E6E5E5",
"8 	c #D3D3D3",
"9 	c #E1E0E0",
"0 	c #7F7F7F",
"a 	c #999999",
"b 	c #DFDEDE",
"c 	c #9DC4B3",
"d 	c #4C9E6E",
"e 	c #0A98CC",
"f 	c #0397D6",
"g 	c #1FA1D8",
"h 	c #DEDEDE",
"i 	c #85AA45",
"j 	c #78A22F",
"k 	c #3E9D83",
"l 	c #90C8DF",
"m 	c #D2D2D2",
"n 	c #E0DFDF",
"o 	c #B9C99E",
"p 	c #69A144",
"q 	c #2DA5D9",
"r 	c #7E7E7E",
"s 	c #999898",
"t 	c #92B25B",
"u 	c #289AA2",
"v 	c #ACD1E0",
"w 	c #989898",
"x 	c #DDDDDD",
"y 	c #D3D8CA",
"z 	c #5B9F59",
"A 	c #58B4DB",
"B 	c #E8E7E7",
"C 	c #D1D1D1",
"D 	c #DEDDDD",
"E 	c #9FB971",
"F 	c #1298C1",
"G 	c #C8DAE2",
"H 	c #7D7D7D",
"I 	c #D9DBD4",
"J 	c #7EA63A",
"K 	c #8DC5DD",
"L 	c #73BDDD",
"M 	c #B8C79C",
"N 	c #ACC187",
"O 	c #D3DCE0",
"P 	c #119CD7",
"Q 	c #E5E4E4",
"R 	c #D0D0D0",
"S 	c #D9DCD5",
"T 	c #57B3DA",
"U 	c #8FC6DE",
"V 	c #7C7C7C",
"W 	c #DDDCDC",
"X 	c #C4CFB2",
"Y 	c #C5D8E0",
"Z 	c #3BAAD9",
"` 	c #9EB871",
" .	c #C5D0B3",
"..	c #B9D5E1",
"+.	c #CFCFCF",
"@.	c #D0D6C7",
"#.	c #8BAD50",
"$.	c #9BC9DD",
"%.	c #57B3DB",
"&.	c #7B7B7B",
"*.	c #AABF86",
"=.	c #1FA0D7",
"-.	c #D5DDE1",
";.	c #CFCECE",
">.	c #91B15B",
",.	c #71BBDB",
"'.	c #80C1DD",
").	c #CECECE",
"!.	c #92B679",
"~.	c #90B884",
"{.	c #BAD3DA",
"].	c #BAD4DB",
"^.	c #ADD0DB",
"/.	c #1FA0D8",
"(.	c #7A7A7A",
"_.	c #B9D2D9",
":.	c #4DB3D0",
"<.	c #96C9D7",
"[.	c #4DB0D8",
"}.	c #9CCADE",
"|.	c #CDCDCD",
"1.	c #83C2D5",
"2.	c #71BED4",
"3.	c #C4D7DC",
"4.	c #B6D1DD",
"5.	c #49AED9",
"6.	c #797979",
"7.	c #CBD7DA",
"8.	c #56B6D1",
"9.	c #9ECBD8",
"0.	c #2CA5D8",
"a.	c #C6D8E0",
"b.	c #83C3D5",
"c.	c #D4DADC",
"d.	c #8CC4DC",
"e.	c #65B8DB",
"f.	c #CCCCCC",
"g.	c #D4D9DB",
"h.	c #7AC0D4",
"i.	c #B9D2DA",
"j.	c #787878",
"k.	c #CCCBCB",
"l.	c #CBCBCB",
"m.	c #787777",
"n.	c #777777",
"o.	c #CACACA",
"p.	c #919191",
"q.	c #DCDCDC",
"r.	c #C6C6C6",
"s.	c #C7C6C6",
"t.	c #C7C7C7",
"u.	c #C8C7C7",
"v.	c #C8C8C8",
"w.	c #C9C9C9",
"x.	c #C4C4C4",
"y.	c #767676",
"z.	c #858484",
"A.	c #757575",
"B.	c #727272",
"C.	c #737272",
"D.	c #737373",
"E.	c #747373",
"F.	c #747474",
"  . + + @ @ #     $ $ $ % % & & & * * = - - ; ; ; > > > > , $ ' ",
") ! ! ~ ~ { ] ] ^ ^ / ( ( _ _ _ : : < < < [ [ [ } } } | | | | 1 ",
"2 ! ! ! ~ ~ { ] ] ^ ^ / ( ( _ _ _ : : < < < [ [ [ } } } | | 3 4 ",
"5 6 ! ! ! ~ ~ { ] ] ^ ^ / ( ( _ _ 7 : : < < < [ [ [ } } } | 3 4 ",
"5 6 6 ! ! ! ~ ~ { ] ] ^ ^ / ( ( _ _ 7 : : < < < [ [ [ } } } 8 4 ",
"5 6 6 6 ! ! 9 ~ ~ { ] ] ^ ^ / ( ( _ _ 7 : : < < < [ [ [ } } 8 0 ",
"a b 6 6 6 ! ! 9 ~ ~ ] c d e f f f f g _ 7 : : < < < [ [ [ } 8 0 ",
"a h b 6 6 6 ! ! 9 ~ ~ i j k f f f f f l _ : : : < < < [ [ [ m 0 ",
"a h h b 6 6 n ! ! 9 o j j p f f f f f q _ _ : : : < < < [ [ m r ",
"s h h h b 6 6 n ! ! t j j j u f f f f f v _ _ : : : < < < [ m r ",
"w x h h h b 6 6 n y j j j j z f f f f f A ( _ _ : : : < < B C r ",
"w x D h h h b 6 6 E j j j j j F f f f f f G ( _ _ : : : < < C H ",
"w x x D h h h b I J j j j j i K f f f f f L ( ( _ _ : : : < C H ",
"w x x x D h h h M j j j j j N O P f f f f g ( ( Q _ _ : : : R H ",
"w x x x x D h h i j j j j j S ~ T f f f f f U ( ( Q _ _ : : R V ",
"w W x x x x D X j j j j j E ! ! Y f f f f f Z ^ ( ( Q _ _ : R V ",
"w W W x x x x ` j j j j j  .n ! ! Z f f f f f ..^ ( ( Q _ _ +.V ",
"w W W W x x @.j j j j j #.6 6 n ! $.f f f f f %.^ ^ ( ( Q _ +.&.",
"w W W W W x *.j j j j j M 6 6 6 n ! =.f f f f P -.^ ^ ( ( Q ;.&.",
"w W W W W W >.j j j j J h h 6 6 6 ! ,.f f f f f '.^ ^ ^ ( ( ).&.",
"w W W W W W !.j j j j ~.{.{.{.].].].^.f f f f f /.] ^ ^ ^ ( ).(.",
"w W W W W W _.:.:.:.:.:.:.:.:.:.:.:.<.[.f f f f f }.] ^ ^ ^ |.(.",
"w W W W W W W 1.:.:.:.:.:.:.:.:.2.3.6 4.f f f f f 5.] ] ^ ^ |.6.",
"w W W W W W W 7.:.:.:.:.:.:.8.9.h h 6 6 0.f f f f f a.] ] ^ |.6.",
"w W W W W W W W 1.:.:.:.:.b.c.D h h h 6 d.f f f f f e.{ ] ] f.6.",
"w W W W W W W W g.8.:.h.i.x x x D h h h 6 P f f f f P ~ { ] f.j.",
"w W W W W W W W W W W W W x x x x D h h h 6 6 6 ! ! ! ~ ~ { k.j.",
"w W W W W W W W W W W W W W x x x x D h h h 6 6 6 ! ! ! ~ ~ l.m.",
"w W W W W W W W W W W W W W W x x x x D h h b 6 6 6 ! ! ! ~ l.n.",
"w W W W W W W W W W W W W W W W x x x x h h h b 6 6 6 ! ! 9 o.n.",
"p.q.r.r.r.r.r.r.r.r.r.r.r.r.r.r.r.r.s.t.t.t.u.v.v.v.w.w.w.o.x.y.",
"z.A.B.B.B.B.B.B.B.B.B.B.B.B.B.B.B.B.B.C.D.D.D.E.F.F.F.A.A.A.y.A."};
